<svg width="459" height="100" viewBox="0 0 459 100" fill="none" xmlns="http://www.w3.org/2000/svg">
<path d="M245.667 49.1183L253.801 59.185L262.044 49.1183H262.396V67.5198H268.307V41H261.827L253.855 50.8773L245.857 41H239.377V67.5739H245.288V49.1183H245.667Z" fill="#2F3342"/>
<path d="M281.811 68.3557C283.164 68.3607 284.503 68.0842 285.743 67.5439C286.937 67.0192 288.022 66.2757 288.942 65.3519C289.857 64.4615 290.593 63.4053 291.111 62.2399C291.644 61.0482 291.912 59.756 291.898 58.4514C291.91 57.1382 291.642 55.8376 291.111 54.6358C290.586 53.466 289.851 52.4021 288.942 51.4967C288.012 50.5993 286.929 49.8753 285.743 49.3589C284.498 48.8394 283.161 48.5727 281.811 48.5741C280.479 48.5726 279.161 48.8395 277.934 49.3589C276.733 49.8621 275.639 50.5874 274.708 51.4967C273.799 52.4021 273.064 53.466 272.539 54.6358C272 55.8358 271.722 57.1364 271.725 58.4514C271.72 59.7579 271.998 61.0501 272.539 62.2399C273.057 63.4053 273.793 64.4615 274.708 65.3519C275.63 66.2783 276.727 67.0139 277.934 67.5168C279.153 68.0667 280.474 68.3526 281.811 68.3557ZM281.811 63.593C281.194 63.578 280.585 63.44 280.022 63.187C279.44 62.9333 278.922 62.5545 278.504 62.0775C278.077 61.5936 277.729 61.0457 277.473 60.4539C277.164 59.8391 276.988 59.1658 276.958 58.4784C276.954 57.7814 277.093 57.0909 277.365 56.4489C277.634 55.8639 277.98 55.3178 278.395 54.8252C278.828 54.3645 279.343 53.9883 279.913 53.7157C280.475 53.4589 281.086 53.3296 281.703 53.3368C282.32 53.3268 282.932 53.4563 283.492 53.7157C284.067 53.9813 284.583 54.3584 285.011 54.8252C285.452 55.3093 285.817 55.8566 286.095 56.4489C286.359 57.0926 286.488 57.7832 286.475 58.4784C286.488 59.1562 286.359 59.8292 286.095 60.4539C285.83 61.0535 285.463 61.6028 285.011 62.0775C284.591 62.5525 284.073 62.931 283.492 63.187C282.963 63.4289 282.393 63.5667 281.811 63.593Z" fill="#2F3342"/>
<path d="M303.909 68.365C305.137 68.381 306.358 68.1794 307.515 67.7697C308.499 67.4238 309.416 66.9111 310.226 66.2543C310.999 65.6599 311.652 64.9254 312.151 64.0894C312.633 63.2942 312.981 62.4259 313.182 61.5186L307.759 60.7609C307.468 61.5298 306.982 62.2103 306.349 62.7364C305.627 63.3324 304.71 63.6409 303.773 63.6023C303.199 63.618 302.63 63.4877 302.119 63.2235C301.584 62.9684 301.105 62.6097 300.709 62.1681C300.279 61.7122 299.955 61.167 299.76 60.5715C299.498 59.9086 299.369 59.2005 299.381 58.4878C299.365 57.766 299.494 57.0483 299.76 56.377C299.968 55.7791 300.29 55.2275 300.709 54.7534C301.121 54.3368 301.597 53.9895 302.119 53.725C302.63 53.4608 303.199 53.3304 303.773 53.3462C304.595 53.3127 305.405 53.5505 306.078 54.0227C306.61 54.4669 307.052 55.0089 307.379 55.6193L312.802 54.8616C312.608 54.0448 312.259 53.273 311.772 52.5885C311.269 51.8268 310.646 51.1507 309.928 50.586C309.101 49.969 308.187 49.4767 307.217 49.1247C306.13 48.7779 304.995 48.6043 303.855 48.6105C302.575 48.612 301.31 48.8793 300.14 49.3953C298.996 49.9139 297.957 50.6386 297.076 51.5331C296.182 52.4453 295.457 53.508 294.934 54.6722C294.404 55.874 294.136 57.1746 294.148 58.4878C294.134 59.7924 294.402 61.0847 294.934 62.2763C295.472 63.4295 296.216 64.475 297.13 65.3613C298.003 66.2724 299.043 67.0074 300.194 67.5262C301.356 68.0727 302.624 68.359 303.909 68.365Z" fill="#2F3342"/>
<path d="M329.202 58.4838V58.105C329.541 58.0169 329.862 57.8703 330.151 57.672C330.415 57.4743 330.636 57.2258 330.802 56.9413C331.052 56.6153 331.185 56.2153 331.181 55.8048V55.0471C331.178 54.8719 331.21 54.6978 331.275 54.5353C331.34 54.3728 331.438 54.2251 331.562 54.1012C331.686 53.9774 331.834 53.8798 331.997 53.8145C332.16 53.7492 332.335 53.7174 332.51 53.7211H333.269V49.1207H332.13C330.481 48.978 328.83 49.3874 327.44 50.2843C326.98 50.676 326.617 51.1674 326.377 51.7209C326.138 52.2743 326.028 52.8752 326.057 53.4775V54.5329C326.085 54.7408 326.063 54.9522 325.995 55.1505C325.927 55.3488 325.813 55.5285 325.663 55.6755C325.513 55.8224 325.331 55.9326 325.131 55.9973C324.931 56.062 324.719 56.0795 324.512 56.0483H321.204V49.3642H315.781V67.5763H321.204V60.7569H324.837C325.042 60.7293 325.25 60.7497 325.445 60.8165C325.641 60.8833 325.818 60.9947 325.963 61.1418C326.108 61.2889 326.216 61.4677 326.279 61.664C326.343 61.8602 326.359 62.0685 326.328 62.2724V63.5983C326.302 64.2056 326.418 64.8106 326.667 65.365C326.917 65.9195 327.293 66.408 327.765 66.7915C329.14 67.7037 330.784 68.1235 332.429 67.9822H333.567V63.2195H332.808C332.633 63.2232 332.458 63.1914 332.295 63.1261C332.133 63.0607 331.985 62.9632 331.861 62.8393C331.736 62.7155 331.639 62.5678 331.573 62.4053C331.508 62.2427 331.476 62.0686 331.48 61.8935V60.9464C331.504 60.5284 331.4 60.113 331.181 59.7557C330.938 59.4748 330.665 59.2208 330.368 58.998C330.007 58.7699 329.614 58.5966 329.202 58.4838Z" fill="#2F3342"/>
<path d="M345.2 68.3557C346.552 68.3584 347.891 68.082 349.131 67.5439C350.326 67.0193 351.411 66.2758 352.331 65.352C353.237 64.4542 353.971 63.3997 354.5 62.2399C355.02 61.0443 355.287 59.7547 355.286 58.4514C355.285 57.1396 355.017 55.8416 354.5 54.6358C353.965 53.4715 353.231 52.4093 352.331 51.4967C351.401 50.5994 350.317 49.8754 349.131 49.3589C347.885 48.8422 346.549 48.5756 345.2 48.5741C343.868 48.5704 342.548 48.8374 341.323 49.3589C340.122 49.8621 339.027 50.5875 338.096 51.4967C337.179 52.3952 336.443 53.4607 335.927 54.6358C335.388 55.8358 335.111 57.1364 335.114 58.4514C335.109 59.7579 335.386 61.0501 335.927 62.2399C336.436 63.4108 337.173 64.4687 338.096 65.352C339.019 66.2783 340.115 67.014 341.323 67.5168C342.54 68.0691 343.862 68.3552 345.2 68.3557ZM345.2 63.593C344.582 63.578 343.974 63.44 343.41 63.1871C342.874 62.9226 342.402 62.5438 342.028 62.0776C341.601 61.5937 341.253 61.0457 340.997 60.4539C340.725 59.831 340.587 59.1581 340.591 58.4785C340.587 57.7814 340.725 57.0909 340.997 56.4489C341.266 55.864 341.613 55.3179 342.028 54.8252C342.455 54.3585 342.971 53.9813 343.546 53.7157C344.107 53.459 344.718 53.3296 345.335 53.3369C345.953 53.3268 346.565 53.4564 347.125 53.7157C347.7 53.9813 348.216 54.3585 348.643 54.8252C349.084 55.3094 349.45 55.8566 349.728 56.4489C349.979 57.0963 350.107 57.7844 350.107 58.4785C350.106 59.1548 349.977 59.8249 349.728 60.4539C349.463 61.0535 349.096 61.6028 348.643 62.0776C348.223 62.5525 347.705 62.9311 347.125 63.1871C346.521 63.4616 345.864 63.6002 345.2 63.593Z" fill="#2F3342"/>
<path d="M363.726 53.5274H367.142C367.318 53.5237 367.492 53.5555 367.655 53.6208C367.818 53.6862 367.966 53.7837 368.09 53.9076C368.214 54.0314 368.312 54.1791 368.377 54.3416C368.443 54.5042 368.475 54.6782 368.471 54.8534C368.48 55.0293 368.451 55.205 368.385 55.3685C368.32 55.5321 368.219 55.6794 368.091 55.8005C367.969 55.927 367.821 56.0261 367.657 56.0914C367.494 56.1567 367.318 56.1867 367.142 56.1794H363.726V53.5274ZM368.471 63.4047H363.726V59.9409H368.471C368.698 59.9276 368.924 59.9643 369.135 60.0485C369.346 60.1327 369.536 60.2623 369.691 60.428C369.853 60.5867 369.982 60.7762 370.07 60.9853C370.158 61.1944 370.204 61.4189 370.204 61.6457C370.204 61.8725 370.158 62.097 370.07 62.3061C369.982 62.5152 369.853 62.7047 369.691 62.8634C369.53 63.0402 369.333 63.1802 369.113 63.2736C368.893 63.367 368.656 63.4117 368.417 63.4047H368.471ZM367.142 49.36H358.303V67.5721H368.2C369.282 67.5912 370.361 67.4452 371.399 67.1391C372.233 66.8642 373.02 66.4626 373.731 65.9484C374.308 65.4882 374.787 64.9178 375.141 64.2706C375.453 63.7167 375.621 63.0932 375.629 62.4575C375.66 61.5991 375.434 60.7508 374.978 60.022C374.577 59.4721 374.092 58.9882 373.541 58.5878C372.902 58.1783 372.195 57.8851 371.453 57.7219V57.2348C371.889 57.0542 372.299 56.8177 372.673 56.5312C373.003 56.2445 373.294 55.9171 373.541 55.557C373.825 55.0845 373.957 54.537 373.921 53.9874C373.909 53.3901 373.751 52.8047 373.46 52.2826C373.126 51.692 372.673 51.1762 372.131 50.7672C371.491 50.2704 370.765 49.8944 369.989 49.6577C369.043 49.4128 368.065 49.3124 367.088 49.36H367.142Z" fill="#2F3342"/>
<path d="M387.282 68.365C388.492 68.3768 389.694 68.1752 390.834 67.7696C391.817 67.4213 392.734 66.9088 393.545 66.2542C394.309 65.6587 394.953 64.9241 395.443 64.0893C395.936 63.2999 396.285 62.4295 396.474 61.5185L391.051 60.7608C390.76 61.5297 390.274 62.2103 389.641 62.7363C388.884 63.3651 387.912 63.6756 386.93 63.6022C386.364 63.6157 385.804 63.4854 385.303 63.2234C384.764 62.9617 384.277 62.604 383.866 62.168C383.444 61.7106 383.129 61.1652 382.944 60.5714C382.672 59.9104 382.534 59.2023 382.537 58.4877C382.53 57.7641 382.668 57.0463 382.944 56.3769C383.142 55.7806 383.455 55.2289 383.866 54.7533C384.292 54.3421 384.776 53.9956 385.303 53.725C385.804 53.463 386.364 53.3326 386.93 53.3461C387.76 53.3147 388.578 53.552 389.261 54.0226C389.903 54.4258 390.441 54.9724 390.834 55.6192L396.257 54.8615C396.04 54.0529 395.692 53.285 395.226 52.5884C394.713 51.8261 394.082 51.1502 393.356 50.5859C392.53 49.9666 391.616 49.474 390.644 49.1246C389.548 48.7793 388.405 48.6059 387.255 48.6104C385.984 48.6093 384.727 48.8768 383.568 49.3952C382.411 49.9064 381.362 50.6318 380.477 51.533C379.593 52.4537 378.869 53.5145 378.335 54.6721C377.817 55.8779 377.55 57.1759 377.548 58.4877C377.547 59.791 377.815 61.0806 378.335 62.2762C378.874 63.4219 379.608 64.4656 380.504 65.3612C381.381 66.2789 382.432 67.0146 383.595 67.5261C384.746 68.0746 386.006 68.3612 387.282 68.365Z" fill="#2F3342"/>
<path d="M412.525 58.4846V58.1057C412.868 58.0282 413.191 57.8808 413.474 57.6727C413.738 57.475 413.959 57.2266 414.125 56.9421C414.356 56.6093 414.47 56.2098 414.45 55.8055V55.0478C414.438 54.698 414.565 54.3576 414.803 54.1007C414.929 53.9721 415.082 53.8719 415.25 53.8065C415.418 53.7412 415.599 53.7124 415.779 53.7218H416.538V49.1215H415.372C413.731 48.9765 412.089 49.3863 410.709 50.2851C410.246 50.6754 409.879 51.1658 409.634 51.7191C409.39 52.2725 409.275 52.8741 409.299 53.4783V54.5337C409.331 54.74 409.314 54.9512 409.249 55.1498C409.185 55.3484 409.074 55.529 408.926 55.6767C408.778 55.8244 408.597 55.9352 408.398 55.9999C408.199 56.0646 407.987 56.0814 407.78 56.0491H404.527V49.365H399.104V67.5771H404.527V60.7577H408.16C408.367 60.7253 408.578 60.7422 408.777 60.8069C408.976 60.8716 409.157 60.9823 409.305 61.1301C409.453 61.2778 409.564 61.4583 409.629 61.657C409.694 61.8556 409.711 62.0667 409.678 62.2731V63.5991C409.653 64.2036 409.767 64.8058 410.011 65.3595C410.255 65.9131 410.624 66.4033 411.088 66.7923C412.473 67.7045 414.126 68.124 415.779 67.983H416.918V63.2202H416.158C415.987 63.2238 415.817 63.1919 415.658 63.1267C415.499 63.0616 415.356 62.9644 415.237 62.8414C415.106 62.7206 415.003 62.5739 414.933 62.4108C414.863 62.2476 414.828 62.0717 414.83 61.8942V60.9471C414.846 60.5263 414.733 60.1107 414.505 59.7564C414.261 59.4756 413.989 59.2216 413.691 58.9987C413.336 58.7606 412.941 58.5866 412.525 58.4846Z" fill="#2F3342"/>
<path d="M419.632 49.3594V67.5714H425.055L431.508 57.9107H431.914V67.5714H437.337V49.3594H431.914L425.353 59.0472H424.973V49.3594H419.632Z" fill="#2F3342"/>
<path d="M450.08 46.4032C450.815 46.3982 451.542 46.2512 452.222 45.9702C452.845 45.7199 453.408 45.3419 453.876 44.8607C454.364 44.373 454.751 43.7936 455.014 43.1558C455.277 42.493 455.406 41.7849 455.394 41.0721H451.978C451.99 41.325 451.951 41.5778 451.862 41.815C451.774 42.0523 451.638 42.2691 451.462 42.4523C451.277 42.6245 451.06 42.7586 450.822 42.8468C450.585 42.9351 450.333 42.9757 450.08 42.9664C449.57 42.9793 449.074 42.7951 448.697 42.4523C448.346 42.0784 448.152 41.5845 448.155 41.0721H444.738C444.694 41.8174 444.805 42.5637 445.064 43.2641C445.297 43.904 445.667 44.4856 446.148 44.9689C446.642 45.4432 447.222 45.8197 447.856 46.0784C448.567 46.3404 449.324 46.451 450.08 46.4032ZM441.159 49.1093V67.5649H446.582L453.198 57.9041H453.577V67.5649H459V49.3528H453.577L446.88 59.0407H446.501V49.3528L441.159 49.1093Z" fill="#2F3342"/>
<path d="M239 80.993V99.2322H244.423V85.7017H250.984V99.2322H256.407V80.993H239Z" fill="#2F3342"/>
<path d="M269.453 99.9948C270.794 99.9933 272.121 99.7266 273.357 99.21C274.548 98.6907 275.633 97.9568 276.557 97.0451C277.474 96.1568 278.21 95.1002 278.726 93.9331C279.262 92.737 279.539 91.4414 279.539 90.131C279.539 88.8207 279.262 87.525 278.726 86.329C278.211 85.1456 277.475 84.071 276.557 83.1628C275.63 82.2681 274.545 81.5524 273.357 81.0521C272.125 80.5172 270.796 80.2412 269.453 80.2412C268.11 80.2412 266.781 80.5172 265.549 81.0521C264.353 81.5522 263.259 82.2677 262.322 83.1628C261.421 84.0852 260.687 85.1564 260.153 86.329C259.635 87.5297 259.367 88.8235 259.367 90.131C259.367 91.4386 259.635 92.7323 260.153 93.9331C260.687 95.0897 261.421 96.1432 262.322 97.0451C263.258 97.9548 264.351 98.6882 265.549 99.21C266.785 99.7294 268.112 99.9962 269.453 99.9948ZM269.453 95.2591C268.832 95.2504 268.22 95.1024 267.664 94.8261C267.069 94.5931 266.54 94.222 266.118 93.7437C265.694 93.2527 265.355 92.6949 265.115 92.0929C264.829 91.4736 264.681 90.7996 264.681 90.1175C264.689 89.4276 264.836 88.7465 265.115 88.115C265.374 87.5226 265.711 86.9674 266.118 86.4643C266.569 86.0197 267.091 85.6538 267.664 85.3818C268.224 85.1224 268.836 84.9929 269.453 85.003C270.07 84.9957 270.681 85.1251 271.243 85.3818C271.808 85.6524 272.321 86.0186 272.761 86.4643C273.194 86.959 273.55 87.5153 273.818 88.115C274.08 88.7499 274.209 89.4312 274.198 90.1175C274.216 90.7957 274.087 91.4697 273.818 92.0929C273.569 92.7028 273.211 93.2622 272.761 93.7437C272.335 94.2046 271.818 94.5731 271.243 94.8261C270.685 95.0998 270.074 95.2477 269.453 95.2591Z" fill="#2F3342"/>
<path d="M291.518 99.9854C292.744 100.001 293.963 99.8086 295.124 99.4171C296.105 99.0632 297.021 98.5513 297.836 97.9017C298.592 97.2986 299.235 96.5655 299.734 95.7368C300.217 94.9428 300.566 94.074 300.764 93.1661L295.341 92.3813C295.067 93.1519 294.589 93.8344 293.958 94.3567C293.199 94.983 292.231 95.3017 291.247 95.2498C290.683 95.2493 290.126 95.1197 289.62 94.8709C289.084 94.6061 288.605 94.2382 288.21 93.7885C287.765 93.3437 287.439 92.7948 287.261 92.1919C286.971 91.5364 286.832 90.8243 286.855 90.1082C286.835 89.3922 286.974 88.6807 287.261 88.0245C287.452 87.4189 287.776 86.864 288.21 86.4008C288.614 85.9758 289.092 85.6274 289.62 85.3725C290.122 85.1105 290.681 84.9801 291.247 84.9936C292.071 84.9474 292.885 85.1864 293.552 85.6702C294.098 86.1001 294.543 86.6453 294.853 87.2668L300.276 86.509C300.059 85.7004 299.711 84.9326 299.246 84.2359C298.726 83.4707 298.096 82.7867 297.375 82.2063C295.642 80.8829 293.51 80.1863 291.328 80.2309C290.054 80.2262 288.795 80.5035 287.641 81.0427C286.486 81.5447 285.437 82.261 284.55 83.1535C283.666 84.0839 282.942 85.1537 282.408 86.3196C281.89 87.5204 281.622 88.8142 281.622 90.1217C281.622 91.4292 281.89 92.723 282.408 93.9238C282.943 95.073 283.667 96.1249 284.55 97.0358C285.435 97.9452 286.483 98.6797 287.641 99.2007C288.859 99.746 290.184 100.014 291.518 99.9854Z" fill="#2F3342"/>
<path d="M301.605 80.993V85.7558H307.326V99.2863H312.749V85.7558H318.47V80.993H301.605Z" fill="#2F3342"/>
<path d="M333.895 88.2258V92.0144C333.598 92.6106 333.224 93.1656 332.783 93.6651C332.399 94.0816 331.961 94.4456 331.482 94.7475C330.949 95.0922 330.327 95.2712 329.692 95.2617C329.103 95.2725 328.519 95.1546 327.98 94.9162C327.441 94.6778 326.962 94.3246 326.574 93.8816C325.667 92.8456 325.209 91.4928 325.3 90.1201C325.225 88.7412 325.681 87.3859 326.574 86.3315C326.972 85.9053 327.455 85.567 327.992 85.3386C328.529 85.1102 329.108 84.9967 329.692 85.0056C330.324 84.9864 330.947 85.156 331.482 85.4927C331.957 85.8214 332.394 86.2026 332.783 86.6292C333.212 87.1186 333.585 87.6541 333.895 88.2258ZM319.986 90.1201C319.961 91.4728 320.21 92.8165 320.718 94.071C321.167 95.2151 321.819 96.2692 322.643 97.183C323.413 98.0349 324.332 98.7408 325.354 99.2667C326.321 99.7514 327.39 100.002 328.472 99.9974C329.249 100.022 330.023 99.893 330.75 99.6185C331.318 99.3823 331.848 99.0631 332.322 98.6714C332.764 98.3014 333.132 97.8516 333.407 97.3454H333.895V99.2396H339.317V81.0005H333.895V82.9219H333.488C333.207 82.412 332.84 81.9542 332.404 81.5688C331.92 81.2052 331.391 80.9051 330.831 80.6758C330.083 80.3713 329.28 80.224 328.472 80.2428C327.373 80.2428 326.288 80.4927 325.3 80.9735C324.273 81.4806 323.353 82.1786 322.588 83.0301C321.765 83.9538 321.113 85.0168 320.663 86.1692C320.137 87.4198 319.87 88.7637 319.877 90.1201H319.986Z" fill="#2F3342"/>
<path d="M348.62 87.8378L353.555 93.9265L358.517 87.8378H358.897V99.2305H364.319V80.9913H358.625L353.555 86.9989L348.62 80.9102H342.9V99.1493H348.322V87.8378H348.62Z" fill="#2F3342"/>
<path d="M381.154 88.2245V92.0131C380.876 92.6136 380.51 93.1699 380.069 93.6638C379.685 94.0803 379.248 94.4443 378.768 94.7462C378.236 95.0909 377.613 95.2699 376.978 95.2604C376.389 95.2712 375.805 95.1533 375.266 94.9149C374.728 94.6764 374.248 94.3233 373.86 93.8803C373.415 93.366 373.075 92.769 372.861 92.1235C372.647 91.4781 372.563 90.7968 372.613 90.1188C372.531 88.7435 372.977 87.3886 373.86 86.3302C374.258 85.9039 374.741 85.5657 375.279 85.3373C375.816 85.1089 376.395 84.9954 376.978 85.0042C377.61 84.9851 378.233 85.1547 378.768 85.4913C379.243 85.82 379.68 86.2013 380.069 86.6279C380.498 87.1115 380.863 87.6481 381.154 88.2245ZM367.272 90.1188C367.261 91.4703 367.509 92.8115 368.004 94.0697C368.454 95.2138 369.106 96.2679 369.929 97.1817C370.694 98.0395 371.614 98.7464 372.64 99.2654C373.624 99.7585 374.712 100.009 375.813 99.996C376.589 100.02 377.363 99.8917 378.09 99.6172C378.658 99.381 379.188 99.0618 379.663 98.6701C380.113 98.3008 380.49 97.8511 380.774 97.3441H381.127V99.2383H386.55V80.9992H381.127V82.9206H380.801C380.51 82.4101 380.134 81.9526 379.69 81.5675C379.206 81.2039 378.678 80.9038 378.117 80.6745C377.394 80.3808 376.62 80.2336 375.84 80.2415C374.74 80.2415 373.656 80.4914 372.667 80.9722C371.636 81.4722 370.715 82.1712 369.956 83.0288C369.132 83.9525 368.48 85.0155 368.031 86.1679C367.527 87.4243 367.269 88.7655 367.272 90.1188Z" fill="#2F3342"/>
<path d="M388.776 80.993V85.7558H394.497V99.2863H399.919V85.7558H405.613V80.993H388.776Z" fill="#2F3342"/>
<path d="M58.1799 40.9976H0V99.0035H58.1799V40.9976Z" fill="#E52C3D"/>
<path d="M99.3061 0L58.1803 41.0029L99.3061 82.0303L140.457 41.0029L99.3061 0Z" fill="#E52C3D"/>
<path d="M198.761 40.9976H140.459V99.0035H198.761V40.9976Z" fill="#E52C3D"/>
</svg>
