<svg width="274" height="274" viewBox="0 0 274 274" fill="none" xmlns="http://www.w3.org/2000/svg">
<g clip-path="url(#clip0_603_4736)">
<path d="M85.0347 0H94.4829V9.44828H85.0347V0Z" fill="#2F3342"/>
<path d="M94.4829 0H103.931V9.44828H94.4829V0Z" fill="#2F3342"/>
<path d="M141.724 0H151.172V9.44828H141.724V0Z" fill="#2F3342"/>
<path d="M160.621 0H170.069V9.44828H160.621V0Z" fill="#2F3342"/>
<path d="M179.517 0H188.965V9.44828H179.517V0Z" fill="#2F3342"/>
<path d="M75.5864 9.44824H85.0347V18.8965H75.5864V9.44824Z" fill="#2F3342"/>
<path d="M94.4829 9.44824H103.931V18.8965H94.4829V9.44824Z" fill="#2F3342"/>
<path d="M122.828 9.44824H132.276V18.8965H122.828V9.44824Z" fill="#2F3342"/>
<path d="M132.276 9.44824H141.724V18.8965H132.276V9.44824Z" fill="#2F3342"/>
<path d="M141.724 9.44824H151.172V18.8965H141.724V9.44824Z" fill="#2F3342"/>
<path d="M151.172 9.44824H160.621V18.8965H151.172V9.44824Z" fill="#2F3342"/>
<path d="M160.621 9.44824H170.069V18.8965H160.621V9.44824Z" fill="#2F3342"/>
<path d="M179.517 9.44824H188.965V18.8965H179.517V9.44824Z" fill="#2F3342"/>
<path d="M85.0347 18.8965H94.4829V28.3448H85.0347V18.8965Z" fill="#2F3342"/>
<path d="M94.4829 18.8965H103.931V28.3448H94.4829V18.8965Z" fill="#2F3342"/>
<path d="M113.379 18.8965H122.828V28.3448H113.379V18.8965Z" fill="#2F3342"/>
<path d="M132.276 18.8965H141.724V28.3448H132.276V18.8965Z" fill="#2F3342"/>
<path d="M141.724 18.8965H151.172V28.3448H141.724V18.8965Z" fill="#2F3342"/>
<path d="M151.172 18.8965H160.621V28.3448H151.172V18.8965Z" fill="#2F3342"/>
<path d="M94.4829 28.3447H103.931V37.793H94.4829V28.3447Z" fill="#2F3342"/>
<path d="M103.931 28.3447H113.379V37.793H103.931V28.3447Z" fill="#2F3342"/>
<path d="M132.276 28.3447H141.724V37.793H132.276V28.3447Z" fill="#2F3342"/>
<path d="M141.724 28.3447H151.172V37.793H141.724V28.3447Z" fill="#2F3342"/>
<path d="M151.172 28.3447H160.621V37.793H151.172V28.3447Z" fill="#2F3342"/>
<path d="M179.517 28.3447H188.965V37.793H179.517V28.3447Z" fill="#2F3342"/>
<path d="M188.965 28.3447H198.414V37.793H188.965V28.3447Z" fill="#2F3342"/>
<path d="M75.5864 37.7932H85.0347V47.2415H75.5864V37.7932Z" fill="#2F3342"/>
<path d="M85.0347 37.7932H94.4829V47.2415H85.0347V37.7932Z" fill="#2F3342"/>
<path d="M103.931 37.7932H113.379V47.2415H103.931V37.7932Z" fill="#2F3342"/>
<path d="M113.379 37.7932H122.828V47.2415H113.379V37.7932Z" fill="#2F3342"/>
<path d="M132.276 37.7932H141.724V47.2415H132.276V37.7932Z" fill="#2F3342"/>
<path d="M141.724 37.7932H151.172V47.2415H141.724V37.7932Z" fill="#2F3342"/>
<path d="M160.621 37.7932H170.069V47.2415H160.621V37.7932Z" fill="#2F3342"/>
<path d="M170.069 37.7932H179.517V47.2415H170.069V37.7932Z" fill="#2F3342"/>
<path d="M179.517 37.7932H188.965V47.2415H179.517V37.7932Z" fill="#2F3342"/>
<path d="M103.931 47.2415H113.379V56.6897H103.931V47.2415Z" fill="#2F3342"/>
<path d="M122.828 47.2415H132.276V56.6897H122.828V47.2415Z" fill="#2F3342"/>
<path d="M141.724 47.2415H151.172V56.6897H141.724V47.2415Z" fill="#2F3342"/>
<path d="M151.172 47.2415H160.621V56.6897H151.172V47.2415Z" fill="#2F3342"/>
<path d="M170.069 47.2415H179.517V56.6897H170.069V47.2415Z" fill="#2F3342"/>
<path d="M179.517 47.2415H188.965V56.6897H179.517V47.2415Z" fill="#2F3342"/>
<path d="M188.965 47.2415H198.414V56.6897H188.965V47.2415Z" fill="#2F3342"/>
<path d="M75.5864 56.6897H85.0347V66.138H75.5864V56.6897Z" fill="#2F3342"/>
<path d="M94.4829 56.6897H103.931V66.138H94.4829V56.6897Z" fill="#2F3342"/>
<path d="M113.379 56.6897H122.828V66.138H113.379V56.6897Z" fill="#2F3342"/>
<path d="M132.276 56.6897H141.724V66.138H132.276V56.6897Z" fill="#2F3342"/>
<path d="M151.172 56.6897H160.621V66.138H151.172V56.6897Z" fill="#2F3342"/>
<path d="M170.069 56.6897H179.517V66.138H170.069V56.6897Z" fill="#2F3342"/>
<path d="M188.965 56.6897H198.414V66.138H188.965V56.6897Z" fill="#2F3342"/>
<path d="M103.931 66.1379H113.379V75.5862H103.931V66.1379Z" fill="#2F3342"/>
<path d="M122.828 66.1379H132.276V75.5862H122.828V66.1379Z" fill="#2F3342"/>
<path d="M132.276 66.1379H141.724V75.5862H132.276V66.1379Z" fill="#2F3342"/>
<path d="M151.172 66.1379H160.621V75.5862H151.172V66.1379Z" fill="#2F3342"/>
<path d="M160.621 66.1379H170.069V75.5862H160.621V66.1379Z" fill="#2F3342"/>
<path d="M170.069 66.1379H179.517V75.5862H170.069V66.1379Z" fill="#2F3342"/>
<path d="M179.517 66.1379H188.965V75.5862H179.517V66.1379Z" fill="#2F3342"/>
<path d="M0 75.5862H9.44828V85.0345H0V75.5862Z" fill="#2F3342"/>
<path d="M18.8965 75.5862H28.3448V85.0345H18.8965V75.5862Z" fill="#2F3342"/>
<path d="M37.793 75.5862H47.2412V85.0345H37.793V75.5862Z" fill="#2F3342"/>
<path d="M56.6895 75.5862H66.1377V85.0345H56.6895V75.5862Z" fill="#2F3342"/>
<path d="M94.4829 75.5862H103.931V85.0345H94.4829V75.5862Z" fill="#2F3342"/>
<path d="M122.828 75.5862H132.276V85.0345H122.828V75.5862Z" fill="#2F3342"/>
<path d="M141.724 75.5862H151.172V85.0345H141.724V75.5862Z" fill="#2F3342"/>
<path d="M151.172 75.5862H160.621V85.0345H151.172V75.5862Z" fill="#2F3342"/>
<path d="M160.621 75.5862H170.069V85.0345H160.621V75.5862Z" fill="#2F3342"/>
<path d="M179.517 75.5862H188.965V85.0345H179.517V75.5862Z" fill="#2F3342"/>
<path d="M188.965 75.5862H198.414V85.0345H188.965V75.5862Z" fill="#2F3342"/>
<path d="M226.759 75.5862H236.207V85.0345H226.759V75.5862Z" fill="#2F3342"/>
<path d="M255.104 75.5862H264.552V85.0345H255.104V75.5862Z" fill="#2F3342"/>
<path d="M18.8965 85.0344H28.3448V94.4827H18.8965V85.0344Z" fill="#2F3342"/>
<path d="M37.793 85.0344H47.2412V94.4827H37.793V85.0344Z" fill="#2F3342"/>
<path d="M47.2412 85.0344H56.6895V94.4827H47.2412V85.0344Z" fill="#2F3342"/>
<path d="M66.1377 85.0344H75.586V94.4827H66.1377V85.0344Z" fill="#2F3342"/>
<path d="M103.931 85.0344H113.379V94.4827H103.931V85.0344Z" fill="#2F3342"/>
<path d="M113.379 85.0344H122.828V94.4827H113.379V85.0344Z" fill="#2F3342"/>
<path d="M151.172 85.0344H160.621V94.4827H151.172V85.0344Z" fill="#2F3342"/>
<path d="M160.621 85.0344H170.069V94.4827H160.621V85.0344Z" fill="#2F3342"/>
<path d="M170.069 85.0344H179.517V94.4827H170.069V85.0344Z" fill="#2F3342"/>
<path d="M188.965 85.0344H198.414V94.4827H188.965V85.0344Z" fill="#2F3342"/>
<path d="M198.414 85.0344H207.862V94.4827H198.414V85.0344Z" fill="#2F3342"/>
<path d="M207.862 85.0344H217.311V94.4827H207.862V85.0344Z" fill="#2F3342"/>
<path d="M236.207 85.0344H245.655V94.4827H236.207V85.0344Z" fill="#2F3342"/>
<path d="M264.552 85.0344H274V94.4827H264.552V85.0344Z" fill="#2F3342"/>
<path d="M0 94.4827H9.44828V103.931H0V94.4827Z" fill="#2F3342"/>
<path d="M28.3447 94.4827H37.793V103.931H28.3447V94.4827Z" fill="#2F3342"/>
<path d="M37.793 94.4827H47.2412V103.931H37.793V94.4827Z" fill="#2F3342"/>
<path d="M56.6895 94.4827H66.1377V103.931H56.6895V94.4827Z" fill="#2F3342"/>
<path d="M85.0347 94.4827H94.4829V103.931H85.0347V94.4827Z" fill="#2F3342"/>
<path d="M113.379 94.4827H122.828V103.931H113.379V94.4827Z" fill="#2F3342"/>
<path d="M151.172 94.4827H160.621V103.931H151.172V94.4827Z" fill="#2F3342"/>
<path d="M170.069 94.4827H179.517V103.931H170.069V94.4827Z" fill="#2F3342"/>
<path d="M198.414 94.4827H207.862V103.931H198.414V94.4827Z" fill="#2F3342"/>
<path d="M245.655 94.4827H255.104V103.931H245.655V94.4827Z" fill="#2F3342"/>
<path d="M255.104 94.4827H264.552V103.931H255.104V94.4827Z" fill="#2F3342"/>
<path d="M264.552 94.4827H274V103.931H264.552V94.4827Z" fill="#2F3342"/>
<path d="M0 103.931H9.44828V113.379H0V103.931Z" fill="#2F3342"/>
<path d="M9.44824 103.931H18.8965V113.379H9.44824V103.931Z" fill="#2F3342"/>
<path d="M18.8965 103.931H28.3448V113.379H18.8965V103.931Z" fill="#2F3342"/>
<path d="M28.3447 103.931H37.793V113.379H28.3447V103.931Z" fill="#2F3342"/>
<path d="M37.793 103.931H47.2412V113.379H37.793V103.931Z" fill="#2F3342"/>
<path d="M47.2412 103.931H56.6895V113.379H47.2412V103.931Z" fill="#2F3342"/>
<path d="M66.1377 103.931H75.586V113.379H66.1377V103.931Z" fill="#2F3342"/>
<path d="M75.5864 103.931H85.0347V113.379H75.5864V103.931Z" fill="#2F3342"/>
<path d="M94.4829 103.931H103.931V113.379H94.4829V103.931Z" fill="#2F3342"/>
<path d="M103.931 103.931H113.379V113.379H103.931V103.931Z" fill="#2F3342"/>
<path d="M113.379 103.931H122.828V113.379H113.379V103.931Z" fill="#2F3342"/>
<path d="M122.828 103.931H132.276V113.379H122.828V103.931Z" fill="#2F3342"/>
<path d="M132.276 103.931H141.724V113.379H132.276V103.931Z" fill="#2F3342"/>
<path d="M141.724 103.931H151.172V113.379H141.724V103.931Z" fill="#2F3342"/>
<path d="M160.621 103.931H170.069V113.379H160.621V103.931Z" fill="#2F3342"/>
<path d="M226.759 103.931H236.207V113.379H226.759V103.931Z" fill="#2F3342"/>
<path d="M255.104 103.931H264.552V113.379H255.104V103.931Z" fill="#2F3342"/>
<path d="M9.44824 113.379H18.8965V122.828H9.44824V113.379Z" fill="#2F3342"/>
<path d="M18.8965 113.379H28.3448V122.828H18.8965V113.379Z" fill="#2F3342"/>
<path d="M47.2412 113.379H56.6895V122.828H47.2412V113.379Z" fill="#2F3342"/>
<path d="M56.6895 113.379H66.1377V122.828H56.6895V113.379Z" fill="#2F3342"/>
<path d="M85.0347 113.379H94.4829V122.828H85.0347V113.379Z" fill="#2F3342"/>
<path d="M103.931 113.379H113.379V122.828H103.931V113.379Z" fill="#2F3342"/>
<path d="M113.379 113.379H122.828V122.828H113.379V113.379Z" fill="#2F3342"/>
<path d="M122.828 113.379H132.276V122.828H122.828V113.379Z" fill="#2F3342"/>
<path d="M160.621 113.379H170.069V122.828H160.621V113.379Z" fill="#2F3342"/>
<path d="M188.965 113.379H198.414V122.828H188.965V113.379Z" fill="#2F3342"/>
<path d="M198.414 113.379H207.862V122.828H198.414V113.379Z" fill="#2F3342"/>
<path d="M207.862 113.379H217.311V122.828H207.862V113.379Z" fill="#2F3342"/>
<path d="M236.207 113.379H245.655V122.828H236.207V113.379Z" fill="#2F3342"/>
<path d="M255.104 113.379H264.552V122.828H255.104V113.379Z" fill="#2F3342"/>
<path d="M264.552 113.379H274V122.828H264.552V113.379Z" fill="#2F3342"/>
<path d="M0 122.828H9.44828V132.276H0V122.828Z" fill="#2F3342"/>
<path d="M18.8965 122.828H28.3448V132.276H18.8965V122.828Z" fill="#2F3342"/>
<path d="M28.3447 122.828H37.793V132.276H28.3447V122.828Z" fill="#2F3342"/>
<path d="M47.2412 122.828H56.6895V132.276H47.2412V122.828Z" fill="#2F3342"/>
<path d="M94.4829 122.828H103.931V132.276H94.4829V122.828Z" fill="#2F3342"/>
<path d="M103.931 122.828H113.379V132.276H103.931V122.828Z" fill="#2F3342"/>
<path d="M122.828 122.828H132.276V132.276H122.828V122.828Z" fill="#2F3342"/>
<path d="M151.172 122.828H160.621V132.276H151.172V122.828Z" fill="#2F3342"/>
<path d="M160.621 122.828H170.069V132.276H160.621V122.828Z" fill="#2F3342"/>
<path d="M170.069 122.828H179.517V132.276H170.069V122.828Z" fill="#2F3342"/>
<path d="M188.965 122.828H198.414V132.276H188.965V122.828Z" fill="#2F3342"/>
<path d="M198.414 122.828H207.862V132.276H198.414V122.828Z" fill="#2F3342"/>
<path d="M207.862 122.828H217.311V132.276H207.862V122.828Z" fill="#2F3342"/>
<path d="M217.311 122.828H226.759V132.276H217.311V122.828Z" fill="#2F3342"/>
<path d="M236.207 122.828H245.655V132.276H236.207V122.828Z" fill="#2F3342"/>
<path d="M264.552 122.828H274V132.276H264.552V122.828Z" fill="#2F3342"/>
<path d="M0 132.276H9.44828V141.724H0V132.276Z" fill="#2F3342"/>
<path d="M9.44824 132.276H18.8965V141.724H9.44824V132.276Z" fill="#2F3342"/>
<path d="M18.8965 132.276H28.3448V141.724H18.8965V132.276Z" fill="#2F3342"/>
<path d="M56.6895 132.276H66.1377V141.724H56.6895V132.276Z" fill="#2F3342"/>
<path d="M75.5864 132.276H85.0347V141.724H75.5864V132.276Z" fill="#2F3342"/>
<path d="M85.0347 132.276H94.4829V141.724H85.0347V132.276Z" fill="#2F3342"/>
<path d="M103.931 132.276H113.379V141.724H103.931V132.276Z" fill="#2F3342"/>
<path d="M132.276 132.276H141.724V141.724H132.276V132.276Z" fill="#2F3342"/>
<path d="M160.621 132.276H170.069V141.724H160.621V132.276Z" fill="#2F3342"/>
<path d="M170.069 132.276H179.517V141.724H170.069V132.276Z" fill="#2F3342"/>
<path d="M198.414 132.276H207.862V141.724H198.414V132.276Z" fill="#2F3342"/>
<path d="M217.311 132.276H226.759V141.724H217.311V132.276Z" fill="#2F3342"/>
<path d="M236.207 132.276H245.655V141.724H236.207V132.276Z" fill="#2F3342"/>
<path d="M255.104 132.276H264.552V141.724H255.104V132.276Z" fill="#2F3342"/>
<path d="M264.552 132.276H274V141.724H264.552V132.276Z" fill="#2F3342"/>
<path d="M9.44824 141.724H18.8965V151.172H9.44824V141.724Z" fill="#2F3342"/>
<path d="M18.8965 141.724H28.3448V151.172H18.8965V141.724Z" fill="#2F3342"/>
<path d="M28.3447 141.724H37.793V151.172H28.3447V141.724Z" fill="#2F3342"/>
<path d="M37.793 141.724H47.2412V151.172H37.793V141.724Z" fill="#2F3342"/>
<path d="M47.2412 141.724H56.6895V151.172H47.2412V141.724Z" fill="#2F3342"/>
<path d="M66.1377 141.724H75.586V151.172H66.1377V141.724Z" fill="#2F3342"/>
<path d="M85.0347 141.724H94.4829V151.172H85.0347V141.724Z" fill="#2F3342"/>
<path d="M122.828 141.724H132.276V151.172H122.828V141.724Z" fill="#2F3342"/>
<path d="M132.276 141.724H141.724V151.172H132.276V141.724Z" fill="#2F3342"/>
<path d="M151.172 141.724H160.621V151.172H151.172V141.724Z" fill="#2F3342"/>
<path d="M160.621 141.724H170.069V151.172H160.621V141.724Z" fill="#2F3342"/>
<path d="M188.965 141.724H198.414V151.172H188.965V141.724Z" fill="#2F3342"/>
<path d="M207.862 141.724H217.311V151.172H207.862V141.724Z" fill="#2F3342"/>
<path d="M236.207 141.724H245.655V151.172H236.207V141.724Z" fill="#2F3342"/>
<path d="M255.104 141.724H264.552V151.172H255.104V141.724Z" fill="#2F3342"/>
<path d="M18.8965 151.172H28.3448V160.621H18.8965V151.172Z" fill="#2F3342"/>
<path d="M37.793 151.172H47.2412V160.621H37.793V151.172Z" fill="#2F3342"/>
<path d="M47.2412 151.172H56.6895V160.621H47.2412V151.172Z" fill="#2F3342"/>
<path d="M56.6895 151.172H66.1377V160.621H56.6895V151.172Z" fill="#2F3342"/>
<path d="M75.5864 151.172H85.0347V160.621H75.5864V151.172Z" fill="#2F3342"/>
<path d="M85.0347 151.172H94.4829V160.621H85.0347V151.172Z" fill="#2F3342"/>
<path d="M113.379 151.172H122.828V160.621H113.379V151.172Z" fill="#2F3342"/>
<path d="M122.828 151.172H132.276V160.621H122.828V151.172Z" fill="#2F3342"/>
<path d="M141.724 151.172H151.172V160.621H141.724V151.172Z" fill="#2F3342"/>
<path d="M151.172 151.172H160.621V160.621H151.172V151.172Z" fill="#2F3342"/>
<path d="M160.621 151.172H170.069V160.621H160.621V151.172Z" fill="#2F3342"/>
<path d="M179.517 151.172H188.965V160.621H179.517V151.172Z" fill="#2F3342"/>
<path d="M188.965 151.172H198.414V160.621H188.965V151.172Z" fill="#2F3342"/>
<path d="M198.414 151.172H207.862V160.621H198.414V151.172Z" fill="#2F3342"/>
<path d="M207.862 151.172H217.311V160.621H207.862V151.172Z" fill="#2F3342"/>
<path d="M217.311 151.172H226.759V160.621H217.311V151.172Z" fill="#2F3342"/>
<path d="M236.207 151.172H245.655V160.621H236.207V151.172Z" fill="#2F3342"/>
<path d="M255.104 151.172H264.552V160.621H255.104V151.172Z" fill="#2F3342"/>
<path d="M264.552 151.172H274V160.621H264.552V151.172Z" fill="#2F3342"/>
<path d="M9.44824 160.621H18.8965V170.069H9.44824V160.621Z" fill="#2F3342"/>
<path d="M37.793 160.621H47.2412V170.069H37.793V160.621Z" fill="#2F3342"/>
<path d="M85.0347 160.621H94.4829V170.069H85.0347V160.621Z" fill="#2F3342"/>
<path d="M94.4829 160.621H103.931V170.069H94.4829V160.621Z" fill="#2F3342"/>
<path d="M103.931 160.621H113.379V170.069H103.931V160.621Z" fill="#2F3342"/>
<path d="M113.379 160.621H122.828V170.069H113.379V160.621Z" fill="#2F3342"/>
<path d="M122.828 160.621H132.276V170.069H122.828V160.621Z" fill="#2F3342"/>
<path d="M132.276 160.621H141.724V170.069H132.276V160.621Z" fill="#2F3342"/>
<path d="M207.862 160.621H217.311V170.069H207.862V160.621Z" fill="#2F3342"/>
<path d="M236.207 160.621H245.655V170.069H236.207V160.621Z" fill="#2F3342"/>
<path d="M245.655 160.621H255.104V170.069H245.655V160.621Z" fill="#2F3342"/>
<path d="M264.552 160.621H274V170.069H264.552V160.621Z" fill="#2F3342"/>
<path d="M0 170.069H9.44828V179.517H0V170.069Z" fill="#2F3342"/>
<path d="M28.3447 170.069H37.793V179.517H28.3447V170.069Z" fill="#2F3342"/>
<path d="M37.793 170.069H47.2412V179.517H37.793V170.069Z" fill="#2F3342"/>
<path d="M56.6895 170.069H66.1377V179.517H56.6895V170.069Z" fill="#2F3342"/>
<path d="M75.5864 170.069H85.0347V179.517H75.5864V170.069Z" fill="#2F3342"/>
<path d="M85.0347 170.069H94.4829V179.517H85.0347V170.069Z" fill="#2F3342"/>
<path d="M94.4829 170.069H103.931V179.517H94.4829V170.069Z" fill="#2F3342"/>
<path d="M160.621 170.069H170.069V179.517H160.621V170.069Z" fill="#2F3342"/>
<path d="M207.862 170.069H217.311V179.517H207.862V170.069Z" fill="#2F3342"/>
<path d="M217.311 170.069H226.759V179.517H217.311V170.069Z" fill="#2F3342"/>
<path d="M255.104 170.069H264.552V179.517H255.104V170.069Z" fill="#2F3342"/>
<path d="M264.552 170.069H274V179.517H264.552V170.069Z" fill="#2F3342"/>
<path d="M9.44824 179.517H18.8965V188.966H9.44824V179.517Z" fill="#2F3342"/>
<path d="M18.8965 179.517H28.3448V188.966H18.8965V179.517Z" fill="#2F3342"/>
<path d="M66.1377 179.517H75.586V188.966H66.1377V179.517Z" fill="#2F3342"/>
<path d="M103.931 179.517H113.379V188.966H103.931V179.517Z" fill="#2F3342"/>
<path d="M122.828 179.517H132.276V188.966H122.828V179.517Z" fill="#2F3342"/>
<path d="M160.621 179.517H170.069V188.966H160.621V179.517Z" fill="#2F3342"/>
<path d="M170.069 179.517H179.517V188.966H170.069V179.517Z" fill="#2F3342"/>
<path d="M179.517 179.517H188.965V188.966H179.517V179.517Z" fill="#2F3342"/>
<path d="M188.965 179.517H198.414V188.966H188.965V179.517Z" fill="#2F3342"/>
<path d="M207.862 179.517H217.311V188.966H207.862V179.517Z" fill="#2F3342"/>
<path d="M236.207 179.517H245.655V188.966H236.207V179.517Z" fill="#2F3342"/>
<path d="M255.104 179.517H264.552V188.966H255.104V179.517Z" fill="#2F3342"/>
<path d="M0 188.966H9.44828V198.414H0V188.966Z" fill="#2F3342"/>
<path d="M18.8965 188.966H28.3448V198.414H18.8965V188.966Z" fill="#2F3342"/>
<path d="M28.3447 188.966H37.793V198.414H28.3447V188.966Z" fill="#2F3342"/>
<path d="M37.793 188.966H47.2412V198.414H37.793V188.966Z" fill="#2F3342"/>
<path d="M47.2412 188.966H56.6895V198.414H47.2412V188.966Z" fill="#2F3342"/>
<path d="M56.6895 188.966H66.1377V198.414H56.6895V188.966Z" fill="#2F3342"/>
<path d="M85.0347 188.966H94.4829V198.414H85.0347V188.966Z" fill="#2F3342"/>
<path d="M94.4829 188.966H103.931V198.414H94.4829V188.966Z" fill="#2F3342"/>
<path d="M103.931 188.966H113.379V198.414H103.931V188.966Z" fill="#2F3342"/>
<path d="M122.828 188.966H132.276V198.414H122.828V188.966Z" fill="#2F3342"/>
<path d="M132.276 188.966H141.724V198.414H132.276V188.966Z" fill="#2F3342"/>
<path d="M160.621 188.966H170.069V198.414H160.621V188.966Z" fill="#2F3342"/>
<path d="M188.965 188.966H198.414V198.414H188.965V188.966Z" fill="#2F3342"/>
<path d="M198.414 188.966H207.862V198.414H198.414V188.966Z" fill="#2F3342"/>
<path d="M207.862 188.966H217.311V198.414H207.862V188.966Z" fill="#2F3342"/>
<path d="M217.311 188.966H226.759V198.414H217.311V188.966Z" fill="#2F3342"/>
<path d="M226.759 188.966H236.207V198.414H226.759V188.966Z" fill="#2F3342"/>
<path d="M75.5864 198.414H85.0347V207.862H75.5864V198.414Z" fill="#2F3342"/>
<path d="M85.0347 198.414H94.4829V207.862H85.0347V198.414Z" fill="#2F3342"/>
<path d="M94.4829 198.414H103.931V207.862H94.4829V198.414Z" fill="#2F3342"/>
<path d="M103.931 198.414H113.379V207.862H103.931V198.414Z" fill="#2F3342"/>
<path d="M113.379 198.414H122.828V207.862H113.379V198.414Z" fill="#2F3342"/>
<path d="M151.172 198.414H160.621V207.862H151.172V198.414Z" fill="#2F3342"/>
<path d="M188.965 198.414H198.414V207.862H188.965V198.414Z" fill="#2F3342"/>
<path d="M226.759 198.414H236.207V207.862H226.759V198.414Z" fill="#2F3342"/>
<path d="M245.655 198.414H255.104V207.862H245.655V198.414Z" fill="#2F3342"/>
<path d="M255.104 198.414H264.552V207.862H255.104V198.414Z" fill="#2F3342"/>
<path d="M264.552 198.414H274V207.862H264.552V198.414Z" fill="#2F3342"/>
<path d="M85.0347 207.862H94.4829V217.31H85.0347V207.862Z" fill="#2F3342"/>
<path d="M103.931 207.862H113.379V217.31H103.931V207.862Z" fill="#2F3342"/>
<path d="M122.828 207.862H132.276V217.31H122.828V207.862Z" fill="#2F3342"/>
<path d="M151.172 207.862H160.621V217.31H151.172V207.862Z" fill="#2F3342"/>
<path d="M160.621 207.862H170.069V217.31H160.621V207.862Z" fill="#2F3342"/>
<path d="M170.069 207.862H179.517V217.31H170.069V207.862Z" fill="#2F3342"/>
<path d="M179.517 207.862H188.965V217.31H179.517V207.862Z" fill="#2F3342"/>
<path d="M188.965 207.862H198.414V217.31H188.965V207.862Z" fill="#2F3342"/>
<path d="M207.862 207.862H217.311V217.31H207.862V207.862Z" fill="#2F3342"/>
<path d="M226.759 207.862H236.207V217.31H226.759V207.862Z" fill="#2F3342"/>
<path d="M236.207 207.862H245.655V217.31H236.207V207.862Z" fill="#2F3342"/>
<path d="M255.104 207.862H264.552V217.31H255.104V207.862Z" fill="#2F3342"/>
<path d="M264.552 207.862H274V217.31H264.552V207.862Z" fill="#2F3342"/>
<path d="M103.931 217.31H113.379V226.759H103.931V217.31Z" fill="#2F3342"/>
<path d="M122.828 217.31H132.276V226.759H122.828V217.31Z" fill="#2F3342"/>
<path d="M132.276 217.31H141.724V226.759H132.276V217.31Z" fill="#2F3342"/>
<path d="M141.724 217.31H151.172V226.759H141.724V217.31Z" fill="#2F3342"/>
<path d="M151.172 217.31H160.621V226.759H151.172V217.31Z" fill="#2F3342"/>
<path d="M160.621 217.31H170.069V226.759H160.621V217.31Z" fill="#2F3342"/>
<path d="M188.965 217.31H198.414V226.759H188.965V217.31Z" fill="#2F3342"/>
<path d="M226.759 217.31H236.207V226.759H226.759V217.31Z" fill="#2F3342"/>
<path d="M236.207 217.31H245.655V226.759H236.207V217.31Z" fill="#2F3342"/>
<path d="M255.104 217.31H264.552V226.759H255.104V217.31Z" fill="#2F3342"/>
<path d="M264.552 217.31H274V226.759H264.552V217.31Z" fill="#2F3342"/>
<path d="M75.5864 226.759H85.0347V236.207H75.5864V226.759Z" fill="#2F3342"/>
<path d="M85.0347 226.759H94.4829V236.207H85.0347V226.759Z" fill="#2F3342"/>
<path d="M103.931 226.759H113.379V236.207H103.931V226.759Z" fill="#2F3342"/>
<path d="M132.276 226.759H141.724V236.207H132.276V226.759Z" fill="#2F3342"/>
<path d="M160.621 226.759H170.069V236.207H160.621V226.759Z" fill="#2F3342"/>
<path d="M188.965 226.759H198.414V236.207H188.965V226.759Z" fill="#2F3342"/>
<path d="M198.414 226.759H207.862V236.207H198.414V226.759Z" fill="#2F3342"/>
<path d="M207.862 226.759H217.311V236.207H207.862V226.759Z" fill="#2F3342"/>
<path d="M217.311 226.759H226.759V236.207H217.311V226.759Z" fill="#2F3342"/>
<path d="M226.759 226.759H236.207V236.207H226.759V226.759Z" fill="#2F3342"/>
<path d="M94.4829 236.207H103.931V245.655H94.4829V236.207Z" fill="#2F3342"/>
<path d="M103.931 236.207H113.379V245.655H103.931V236.207Z" fill="#2F3342"/>
<path d="M122.828 236.207H132.276V245.655H122.828V236.207Z" fill="#2F3342"/>
<path d="M151.172 236.207H160.621V245.655H151.172V236.207Z" fill="#2F3342"/>
<path d="M160.621 236.207H170.069V245.655H160.621V236.207Z" fill="#2F3342"/>
<path d="M179.517 236.207H188.965V245.655H179.517V236.207Z" fill="#2F3342"/>
<path d="M188.965 236.207H198.414V245.655H188.965V236.207Z" fill="#2F3342"/>
<path d="M198.414 236.207H207.862V245.655H198.414V236.207Z" fill="#2F3342"/>
<path d="M226.759 236.207H236.207V245.655H226.759V236.207Z" fill="#2F3342"/>
<path d="M245.655 236.207H255.104V245.655H245.655V236.207Z" fill="#2F3342"/>
<path d="M255.104 236.207H264.552V245.655H255.104V236.207Z" fill="#2F3342"/>
<path d="M264.552 236.207H274V245.655H264.552V236.207Z" fill="#2F3342"/>
<path d="M75.5864 245.655H85.0347V255.104H75.5864V245.655Z" fill="#2F3342"/>
<path d="M103.931 245.655H113.379V255.104H103.931V245.655Z" fill="#2F3342"/>
<path d="M113.379 245.655H122.828V255.104H113.379V245.655Z" fill="#2F3342"/>
<path d="M122.828 245.655H132.276V255.104H122.828V245.655Z" fill="#2F3342"/>
<path d="M132.276 245.655H141.724V255.104H132.276V245.655Z" fill="#2F3342"/>
<path d="M188.965 245.655H198.414V255.104H188.965V245.655Z" fill="#2F3342"/>
<path d="M217.311 245.655H226.759V255.104H217.311V245.655Z" fill="#2F3342"/>
<path d="M226.759 245.655H236.207V255.104H226.759V245.655Z" fill="#2F3342"/>
<path d="M236.207 245.655H245.655V255.104H236.207V245.655Z" fill="#2F3342"/>
<path d="M264.552 245.655H274V255.104H264.552V245.655Z" fill="#2F3342"/>
<path d="M85.0347 255.104H94.4829V264.552H85.0347V255.104Z" fill="#2F3342"/>
<path d="M94.4829 255.104H103.931V264.552H94.4829V255.104Z" fill="#2F3342"/>
<path d="M122.828 255.104H132.276V264.552H122.828V255.104Z" fill="#2F3342"/>
<path d="M132.276 255.104H141.724V264.552H132.276V255.104Z" fill="#2F3342"/>
<path d="M160.621 255.104H170.069V264.552H160.621V255.104Z" fill="#2F3342"/>
<path d="M170.069 255.104H179.517V264.552H170.069V255.104Z" fill="#2F3342"/>
<path d="M188.965 255.104H198.414V264.552H188.965V255.104Z" fill="#2F3342"/>
<path d="M207.862 255.104H217.311V264.552H207.862V255.104Z" fill="#2F3342"/>
<path d="M226.759 255.104H236.207V264.552H226.759V255.104Z" fill="#2F3342"/>
<path d="M255.104 255.104H264.552V264.552H255.104V255.104Z" fill="#2F3342"/>
<path d="M75.5864 264.552H85.0347V274H75.5864V264.552Z" fill="#2F3342"/>
<path d="M85.0347 264.552H94.4829V274H85.0347V264.552Z" fill="#2F3342"/>
<path d="M94.4829 264.552H103.931V274H94.4829V264.552Z" fill="#2F3342"/>
<path d="M122.828 264.552H132.276V274H122.828V264.552Z" fill="#2F3342"/>
<path d="M151.172 264.552H160.621V274H151.172V264.552Z" fill="#2F3342"/>
<path d="M160.621 264.552H170.069V274H160.621V264.552Z" fill="#2F3342"/>
<path d="M179.517 264.552H188.965V274H179.517V264.552Z" fill="#2F3342"/>
<path d="M188.965 264.552H198.414V274H188.965V264.552Z" fill="#2F3342"/>
<path d="M217.311 264.552H226.759V274H217.311V264.552Z" fill="#2F3342"/>
<path d="M226.759 264.552H236.207V274H226.759V264.552Z" fill="#2F3342"/>
<path d="M236.207 264.552H245.655V274H236.207V264.552Z" fill="#2F3342"/>
<path d="M255.104 264.552H264.552V274H255.104V264.552Z" fill="#2F3342"/>
<path d="M264.552 264.552H274V274H264.552V264.552Z" fill="#2F3342"/>
<path d="M33.069 0H66.1379V66.1379H0V0H33.069V9.44828H9.44828V56.6897H56.6897V9.44828H33.069V0Z" fill="#2F3342"/>
<path d="M240.931 0H274V66.1379H207.862V0H240.931V9.44828H217.311V56.6897H264.552V9.44828H240.931V0Z" fill="#2F3342"/>
<path d="M33.069 207.862H66.1379V274H0V207.862H33.069V217.31H9.44828V264.552H56.6897V217.31H33.069V207.862Z" fill="#2F3342"/>
<path d="M33.0689 18.8965H47.2413V47.2413H18.8965V18.8965H33.0689Z" fill="#2F3342"/>
<path d="M240.931 18.8965H255.104V47.2413H226.759V18.8965H240.931Z" fill="#2F3342"/>
<path d="M33.0689 226.759H47.2413V255.103H18.8965V226.759H33.0689Z" fill="#2F3342"/>
</g>
<defs>
<clipPath id="clip0_603_4736">
<rect width="274" height="274" fill="white"/>
</clipPath>
</defs>
</svg>
