<svg width="33" height="33" viewBox="0 0 33 33" fill="none" xmlns="http://www.w3.org/2000/svg">
<path d="M4.83286 28.1671C3.29842 26.6367 2.08155 24.8181 1.25217 22.8158C0.422786 20.8136 -0.00274946 18.6672 1.33675e-05 16.5C1.33675e-05 7.38705 7.38706 0 16.5 0C25.613 0 33 7.38705 33 16.5C33 25.6129 25.613 33 16.5 33H1.33675e-05L4.83286 28.1671ZM9.90001 18.15C9.90001 19.9004 10.5954 21.5792 11.8331 22.8169C13.0708 24.0546 14.7496 24.75 16.5 24.75C18.2504 24.75 19.9292 24.0546 21.1669 22.8169C22.4046 21.5792 23.1 19.9004 23.1 18.15H9.90001Z" fill="#FF1935"/>
</svg>
