<svg width="33" height="33" viewBox="0 0 33 33" fill="none" xmlns="http://www.w3.org/2000/svg">
<path d="M16.5 33C7.38705 33 0 25.613 0 16.5C0 7.38705 7.38705 0 16.5 0C25.613 0 33 7.38705 33 16.5C33 25.613 25.613 33 16.5 33ZM8.25 16.5C8.25 18.688 9.11919 20.7865 10.6664 22.3336C12.2135 23.8808 14.312 24.75 16.5 24.75C18.688 24.75 20.7865 23.8808 22.3336 22.3336C23.8808 20.7865 24.75 18.688 24.75 16.5H21.45C21.45 17.8128 20.9285 19.0719 20.0002 20.0002C19.0719 20.9285 17.8128 21.45 16.5 21.45C15.1872 21.45 13.9281 20.9285 12.9998 20.0002C12.0715 19.0719 11.55 17.8128 11.55 16.5H8.25Z" fill="#FF1935"/>
</svg>
