<svg width="175" height="153" viewBox="0 0 175 153" fill="none" xmlns="http://www.w3.org/2000/svg">
<path fill-rule="evenodd" clip-rule="evenodd" d="M30.7017 82.1212C30.7017 42.9751 62.4765 11.2424 101.675 11.2424V18.537C66.5105 18.537 38.0059 47.0038 38.0059 82.1212C38.0059 117.239 66.5105 145.705 101.675 145.705C136.839 145.705 165.343 117.239 165.343 82.1212C165.343 73.1298 163.477 64.5852 160.113 56.8407L166.814 53.9375C170.569 62.5814 172.647 72.1127 172.647 82.1212C172.647 121.267 140.873 153 101.675 153C62.4765 153 30.7017 121.267 30.7017 82.1212Z" fill="#E52C3D"/>
<path d="M139.71 26.9063C128.768 19.493 115.538 15.1584 101.282 15.1584L139.71 26.9063Z" fill="white"/>
<path fill-rule="evenodd" clip-rule="evenodd" d="M101.282 11.2424C116.114 11.2424 129.888 15.9019 141.278 23.8703L137.157 30.039C126.943 22.893 114.597 18.7149 101.282 18.7149V11.2424Z" fill="#E52C3D"/>
<path fill-rule="evenodd" clip-rule="evenodd" d="M175 19.3038L93.6853 108.358L66.7759 84.0296L71.6398 78.6095L93.1957 98.0978L169.642 14.3751L175 19.3038Z" fill="#E52C3D"/>
<path fill-rule="evenodd" clip-rule="evenodd" d="M101.27 33.4496C74.5448 33.4496 52.8805 55.257 52.8805 82.1592C52.8805 89.0487 54.2983 95.5962 56.8546 101.525L50.1778 104.442C47.2315 97.6084 45.6021 90.0694 45.6021 82.1592C45.6021 51.2107 70.525 26.123 101.27 26.123C112.905 26.123 123.715 29.7195 132.652 35.8691L128.544 41.9175C120.779 36.574 111.393 33.4496 101.27 33.4496Z" fill="#E52C3D"/>
<path fill-rule="evenodd" clip-rule="evenodd" d="M149.685 82.0831C149.685 75.1937 148.267 68.6461 145.711 62.717L152.387 59.8002C155.334 66.6339 156.963 74.1729 156.963 82.0831C156.963 113.032 132.04 138.119 101.295 138.119C89.66 138.119 78.8502 134.523 69.9136 128.373L74.0212 122.325C81.7863 127.668 91.1719 130.793 101.295 130.793C128.02 130.793 149.685 108.985 149.685 82.0831Z" fill="#E52C3D"/>
<path fill-rule="evenodd" clip-rule="evenodd" d="M138.932 112.897C145.659 104.595 149.685 94.0275 149.685 82.5128H156.963C156.963 95.7515 152.328 107.921 144.59 117.471C134.389 130.06 118.785 138.119 101.295 138.119C89.66 138.119 78.8502 134.55 69.9136 128.448L74.0212 122.446C81.7863 127.748 91.1719 130.849 101.295 130.849C116.495 130.849 130.053 123.854 138.932 112.897Z" fill="#E52C3D"/>
<path fill-rule="evenodd" clip-rule="evenodd" d="M73.0501 42.9897C60.8484 51.8095 52.926 66.1133 52.926 82.2609C52.926 89.1189 54.3526 95.6365 56.9249 101.539L50.2064 104.442C47.2417 97.6395 45.6021 90.135 45.6021 82.2609C45.6021 63.6787 54.7298 47.2203 68.7478 37.0876L73.0501 42.9897Z" fill="#E52C3D"/>
<path d="M22.2588 5.11011L26.1936 23.4098L44.5176 27.3394L26.1936 31.269L22.2588 49.5687L18.324 31.269L0 27.3394L18.324 23.4098L22.2588 5.11011Z" fill="#E52C3D"/>
<path d="M47.3321 0L49.0055 7.78262L56.7985 9.45384L49.0055 11.1251L47.3321 18.9077L45.6587 11.1251L37.8657 9.45384L45.6587 7.78262L47.3321 0Z" fill="#E52C3D"/>
</svg>
