<svg width="24" height="24" viewBox="0 0 24 24" fill="none" xmlns="http://www.w3.org/2000/svg">
<path d="M2 8.96429C2 8.27393 2.55964 7.71429 3.25 7.71429H5.83834C6.5287 7.71429 7.08834 8.27393 7.08834 8.96429V20.75C7.08834 21.4404 6.5287 22 5.83834 22H3.25C2.55964 22 2 21.4404 2 20.75V8.96429Z" stroke="#9DA1AE"/>
<path d="M16.9117 6.10714C16.9117 5.41679 17.4713 4.85714 18.1617 4.85714H20.75C21.4404 4.85714 22 5.41679 22 6.10714V20.75C22 21.4404 21.4404 22 20.75 22H18.1617C17.4713 22 16.9117 21.4404 16.9117 20.75V6.10714Z" stroke="#9DA1AE"/>
<path d="M9.34982 3.25C9.34982 2.55964 9.90947 2 10.5998 2H13.1882C13.8785 2 14.4382 2.55964 14.4382 3.25V20.75C14.4382 21.4404 13.8785 22 13.1882 22H10.5998C9.90947 22 9.34982 21.4404 9.34982 20.75V3.25Z" stroke="#9DA1AE"/>
</svg>
