<svg width="26" height="24" viewBox="0 0 26 24" fill="none" xmlns="http://www.w3.org/2000/svg">
<path d="M24 13.5714C24.8679 13.5714 25.5714 12.8679 25.5714 12C25.5714 11.1321 24.8679 10.4286 24 10.4286L24 13.5714ZM0.888834 10.8888C0.275152 11.5025 0.275152 12.4975 0.888834 13.1112L10.8893 23.1117C11.503 23.7254 12.498 23.7254 13.1117 23.1117C13.7254 22.498 13.7254 21.503 13.1117 20.8893L4.22233 12L13.1117 3.11067C13.7253 2.49698 13.7253 1.50201 13.1117 0.888331C12.498 0.274652 11.503 0.274652 10.8893 0.888332L0.888834 10.8888ZM24 10.4286L2 10.4286L2 13.5714L24 13.5714L24 10.4286Z" fill="#2F3342"/>
</svg>
