<svg width="27" height="19" viewBox="0 0 27 19" fill="none" xmlns="http://www.w3.org/2000/svg">
<path d="M5.03086 0.183058C4.78679 -0.0610194 4.39106 -0.0610194 4.14698 0.183058C3.9029 0.427136 3.9029 0.822864 4.14698 1.06694L21.647 18.5669C21.891 18.811 22.2868 18.811 22.5308 18.5669C22.7749 18.3229 22.7749 17.9271 22.5308 17.6831L5.03086 0.183058Z" fill="#2F3342"/>
<path d="M6.50659 4.31044C5.64227 4.7578 4.84975 5.24888 4.14489 5.73575C2.98416 6.53752 2.04565 7.33862 1.39652 7.93993C1.07165 8.24087 0.818432 8.49254 0.645248 8.67029C0.558635 8.75918 0.491978 8.82965 0.446323 8.87863C0.423493 8.90311 0.405909 8.92223 0.393701 8.9356L0.379436 8.95129L0.375356 8.95582L0.374085 8.95723C0.373917 8.95742 0.373328 8.95807 0.838943 9.375L0.374085 8.95723L0 9.375L0.373328 9.79193L0.838943 9.375C0.373328 9.79193 0.37316 9.79174 0.373328 9.79193L0.375356 9.79418L0.379436 9.79871L0.393701 9.8144C0.405909 9.82777 0.423493 9.84689 0.446323 9.87137C0.491978 9.92035 0.558635 9.99082 0.645248 10.0797C0.818432 10.2575 1.07165 10.5091 1.39652 10.8101C2.04565 11.4114 2.98416 12.2125 4.14489 13.0142C6.45445 14.6096 9.70526 16.25 13.3389 16.25C14.8734 16.25 16.3396 15.9575 17.6955 15.4993L16.6985 14.5024C15.6282 14.8126 14.5007 15 13.3389 15C10.069 15 7.06987 13.5154 4.85532 11.9858C3.75399 11.225 2.86192 10.4636 2.24598 9.89305C2.03113 9.69403 1.85028 9.5186 1.70629 9.375C1.85028 9.2314 2.03113 9.05597 2.24598 8.85695C2.86192 8.28638 3.75399 7.52498 4.85532 6.76425C5.62777 6.23068 6.49569 5.7026 7.43726 5.2411L6.50659 4.31044Z" fill="#2F3342"/>
<path d="M19.2406 13.5089C20.1822 13.0474 21.0501 12.5193 21.8225 11.9858C22.9239 11.225 23.8159 10.4636 24.4319 9.89305C24.6467 9.69403 24.8276 9.5186 24.9716 9.375C24.8276 9.2314 24.6467 9.05597 24.4319 8.85695C23.8159 8.28638 22.9239 7.52498 21.8225 6.76425C19.608 5.23456 16.6088 3.75 13.3389 3.75C12.1772 3.75 11.0496 3.93739 9.9793 4.24761L8.98238 3.25069C10.3383 2.79254 11.8045 2.5 13.3389 2.5C16.9726 2.5 20.2234 4.14044 22.533 5.73575C23.6937 6.53752 24.6322 7.33862 25.2813 7.93993C25.6062 8.24087 25.8594 8.49254 26.0326 8.67029C26.1192 8.75918 26.1859 8.82965 26.2315 8.87863C26.2544 8.90311 26.2719 8.92223 26.2842 8.9356L26.2984 8.95129L26.3025 8.95582L26.3038 8.95723C26.3039 8.95742 26.3045 8.95807 25.8389 9.375C26.3045 9.79193 26.3044 9.79209 26.3042 9.79228L26.3025 9.79418L26.2984 9.79871L26.2842 9.8144L26.2595 9.84127L26.2315 9.87137C26.1859 9.92035 26.1192 9.99082 26.0326 10.0797C25.8594 10.2575 25.6062 10.5091 25.2813 10.8101C24.6322 11.4114 23.6937 12.2125 22.533 13.0142C21.8281 13.5011 21.0356 13.9922 20.1712 14.4396L19.2406 13.5089Z" fill="#2F3342"/>
<path d="M25.8389 9.375L26.3038 8.95723L26.6779 9.375L26.3042 9.79228L25.8389 9.375Z" fill="#2F3342"/>
<path d="M9.95438 7.75823C9.72011 8.24778 9.58892 8.79607 9.58892 9.375C9.58892 11.4461 11.2678 13.125 13.3389 13.125C13.9178 13.125 14.4661 12.9938 14.9557 12.7595L13.9865 11.7903C13.7799 11.8456 13.5629 11.875 13.3389 11.875C11.9582 11.875 10.8389 10.7557 10.8389 9.375C10.8389 9.15105 10.8684 8.93398 10.9236 8.72745L9.95438 7.75823Z" fill="#2F3342"/>
<path d="M15.7542 10.0226C15.8095 9.81602 15.8389 9.59895 15.8389 9.375C15.8389 7.99429 14.7196 6.875 13.3389 6.875C13.115 6.875 12.8979 6.90445 12.6914 6.95968L11.7221 5.99046C12.2117 5.75619 12.76 5.625 13.3389 5.625C15.41 5.625 17.0889 7.30393 17.0889 9.375C17.0889 9.95393 16.9577 10.5022 16.7234 10.9918L15.7542 10.0226Z" fill="#2F3342"/>
</svg>
