<svg width="124" height="124" viewBox="0 0 124 124" fill="none" xmlns="http://www.w3.org/2000/svg">
<g clip-path="url(#clip0_58_791)">
<path d="M79.5944 6.04714L88.8448 9.85976L87.6512 26.1646L87.4665 28.6962L89.3905 30.3516C90.8595 31.6157 92.2512 32.994 93.5288 34.4513L95.1926 36.35L97.7092 36.1536L114.023 34.8794L117.867 44.1163L105.561 54.7449L103.636 56.407L103.832 58.9437C103.985 60.9214 103.995 62.9175 103.864 64.875L103.694 67.3966L105.615 69.0402L117.949 79.5899L114.137 88.8386L98.0248 87.6601L95.4914 87.4754L93.8361 89.4027C92.545 90.9069 91.1247 92.3373 89.6171 93.6518L87.7099 95.3155L87.9064 97.8388L89.1689 114.036L79.9318 117.881L69.3349 105.61L67.6762 103.69L65.1462 103.879C64.1137 103.956 63.0694 103.995 62.0403 103.995C61.085 103.995 60.1197 103.962 59.1695 103.894L56.6377 103.716L54.9891 105.645L44.4661 117.95L36.003 114.461L53.7837 96.6804C54.4536 96.8399 55.1251 96.9809 55.7966 97.1001C57.8213 97.4611 59.8964 97.6424 61.9664 97.6424C67.8944 97.6424 73.7839 96.1516 78.9984 93.3312C82.5307 91.419 85.6852 88.9528 88.3764 85.998C91.1617 82.9375 93.3811 79.4304 94.9693 75.5759C98.599 66.7721 98.5839 57.0836 94.9257 48.2915C91.2658 39.4995 84.4026 32.6599 75.6021 29.0337C73.2298 28.0532 70.7502 27.3297 68.2285 26.8797C66.2038 26.5188 64.1271 26.3358 62.0571 26.3358C56.1274 26.3358 50.2396 27.8266 45.0268 30.647C41.4962 32.5575 38.3416 35.0237 35.6487 37.9802C32.8635 41.039 30.6458 44.5461 29.0559 48.4023C26.1934 55.3443 25.6025 62.9762 27.3216 70.207L9.52413 88.0042L6.16978 79.9442L18.5396 69.2618L20.4535 67.6098L20.2721 65.0882C20.1328 63.1626 20.1278 61.2068 20.257 59.2778L20.4266 56.7562L18.506 55.1143L6.0489 44.4604L9.86326 35.2101L26.2086 36.4054L28.7302 36.5901L30.3839 34.6779C31.6262 33.2425 32.9928 31.8692 34.4433 30.5983L36.3421 28.9346L36.1457 26.4181L34.8681 10.0276L44.1068 6.18313L54.8196 18.588L56.4749 20.5052L59.0016 20.3189C60.0324 20.2433 61.075 20.2047 62.1007 20.2047C62.9872 20.2047 63.8837 20.2332 64.7634 20.2903L67.2783 20.4532L68.9169 18.5376L79.5994 6.04882M78.1438 0.00167887L65.0891 15.2639C64.0919 15.2001 63.0946 15.1682 62.1007 15.1682C60.939 15.1682 59.7822 15.2119 58.6306 15.2975L45.5355 0.134306L29.5629 6.78079L31.1242 26.8109C29.5142 28.2211 27.9932 29.7455 26.5745 31.384L6.59453 29.9235L0 45.9177L15.2322 58.9437C15.0862 61.1245 15.0929 63.2986 15.249 65.4542L0.120878 78.5188L6.76913 94.4929L10.4509 94.2058L32.976 71.681C30.6357 64.7021 30.8808 57.1994 33.7147 50.3279C35.083 47.0106 36.9868 44.0004 39.3758 41.3764C41.6859 38.8414 44.3956 36.7227 47.4276 35.0825C51.937 32.6432 56.992 31.379 62.0604 31.379C63.83 31.379 65.5995 31.5334 67.3505 31.844C69.5061 32.2285 71.6366 32.8497 73.6831 33.6941C81.2447 36.81 87.1375 42.6842 90.2786 50.2322C93.4197 57.7803 93.4331 66.1022 90.3172 73.6603C88.9506 76.976 87.0451 79.9878 84.6561 82.6118C82.3477 85.1469 79.638 87.2639 76.6043 88.9058C72.0949 91.3451 67.0382 92.6093 61.9715 92.6093C60.2036 92.6093 58.4341 92.4548 56.6848 92.1442C55.2107 91.8823 53.7501 91.5079 52.3197 91.0295L30.2462 113.103L29.9323 117.406L45.9267 124L58.8219 108.922C59.8981 108.998 60.9725 109.035 62.0453 109.035C63.2105 109.035 64.3722 108.991 65.5289 108.904L78.5082 123.933L94.4791 117.285L92.9329 97.4476C94.61 95.9837 96.1932 94.3939 97.6605 92.6831L117.407 94.1269L124 78.1344L108.892 65.2108C109.041 62.9813 109.026 60.7585 108.857 58.5559L123.921 45.545L117.275 29.5726L97.3214 31.1305C95.8927 29.4987 94.3431 27.9626 92.6793 26.5322L94.1383 6.59276L78.1438 0V0.00167887Z" fill="#FF3030"/>
<path fill-rule="evenodd" clip-rule="evenodd" d="M57.3761 43.0491L70.1864 45.9616L58.2958 57.8522L66.1484 65.706L78.0411 53.8153L80.951 66.6241L71.3424 81.2315L55.9372 82.0766L29.0953 110.898L16.555 107.447L13.1019 94.905L41.9237 68.0645L42.7706 52.6597L57.3761 43.0491ZM58.3502 48.4262L47.6513 55.4663L46.8324 70.3631L18.7577 96.5078L20.6436 103.358L27.4923 105.243L53.6389 77.1677L68.5355 76.3505L75.5742 65.65L75.156 63.8091L66.1481 72.8155L58.6664 65.3338L58.6662 65.3335L51.1865 57.8517L60.193 48.8452L58.3502 48.4262Z" fill="#FF3030"/>
<path d="M95.1033 75.3173C102.588 57.1639 93.9363 36.3802 75.7828 28.8975C73.365 27.9012 70.9037 27.1913 68.4307 26.7493C52.3316 23.8861 35.8508 32.4789 29.3643 48.2162C25.6372 57.256 25.9118 66.9505 29.371 75.329L33.2723 71.4277C30.9382 64.4674 31.1827 56.9848 34.009 50.1316C35.3736 46.8231 37.2724 43.821 39.655 41.204C41.9589 38.6757 44.6613 36.5627 47.6853 34.9268C53.7532 31.6434 60.8089 30.4965 67.555 31.697C69.7049 32.0804 71.8296 32.6999 73.8707 33.5421C81.412 36.6497 87.2891 42.5083 90.4218 50.0362C93.5545 57.5641 93.5679 65.8639 90.4603 73.4018C89.0974 76.7087 87.197 79.7124 84.8143 82.3295C82.5121 84.8577 79.8097 86.9691 76.7841 88.6066C70.7178 91.8883 63.6604 93.0369 56.9177 91.8364C55.4476 91.5752 53.9909 91.2019 52.5644 90.7247L48.6631 94.6259C48.6631 94.6259 48.6765 94.6326 48.6848 94.636C51.1026 95.6322 53.564 96.3421 56.0387 96.7825C72.136 99.6473 88.6185 91.0528 95.105 75.3156L95.1033 75.3173Z" fill="#FF3030"/>
</g>
<defs>
<clipPath id="clip0_58_791">
<rect width="124" height="124" fill="white"/>
</clipPath>
</defs>
</svg>
