<svg width="25" height="24" viewBox="0 0 25 24" fill="none" xmlns="http://www.w3.org/2000/svg">
<mask id="path-1-inside-1_39_201" fill="white">
<path d="M16.376 23.3568C13.9167 24.1961 11.2513 24.2145 8.78071 23.4091C6.31008 22.6037 4.16765 21.018 2.6755 18.8905C1.18336 16.763 0.422145 14.2087 0.506293 11.6114C0.590442 9.01418 1.51541 6.51443 3.14213 4.48799C4.76886 2.46154 7.00944 1.0179 9.52703 0.374105C12.0446 -0.269692 14.7032 -0.0788582 17.103 0.917918C19.5028 1.9147 21.5142 3.66355 22.8348 5.90156C24.1555 8.13957 24.7139 10.7458 24.4262 13.3284L21.8025 13.0362C22.0269 11.0217 21.5913 8.98886 20.5612 7.24322C19.5311 5.49757 17.9622 4.13346 16.0903 3.35598C14.2185 2.57849 12.1448 2.42964 10.1811 2.9318C8.21736 3.43396 6.46971 4.56 5.20087 6.14063C3.93202 7.72126 3.21055 9.67106 3.14491 11.6969C3.07927 13.7227 3.67302 15.7152 4.83689 17.3746C6.00076 19.0341 7.67186 20.2709 9.59896 20.8991C11.5261 21.5273 13.605 21.513 15.5233 20.8583L16.376 23.3568Z"/>
</mask>
<path d="M16.376 23.3568C13.9167 24.1961 11.2513 24.2145 8.78071 23.4091C6.31008 22.6037 4.16765 21.018 2.6755 18.8905C1.18336 16.763 0.422145 14.2087 0.506293 11.6114C0.590442 9.01418 1.51541 6.51443 3.14213 4.48799C4.76886 2.46154 7.00944 1.0179 9.52703 0.374105C12.0446 -0.269692 14.7032 -0.0788582 17.103 0.917918C19.5028 1.9147 21.5142 3.66355 22.8348 5.90156C24.1555 8.13957 24.7139 10.7458 24.4262 13.3284L21.8025 13.0362C22.0269 11.0217 21.5913 8.98886 20.5612 7.24322C19.5311 5.49757 17.9622 4.13346 16.0903 3.35598C14.2185 2.57849 12.1448 2.42964 10.1811 2.9318C8.21736 3.43396 6.46971 4.56 5.20087 6.14063C3.93202 7.72126 3.21055 9.67106 3.14491 11.6969C3.07927 13.7227 3.67302 15.7152 4.83689 17.3746C6.00076 19.0341 7.67186 20.2709 9.59896 20.8991C11.5261 21.5273 13.605 21.513 15.5233 20.8583L16.376 23.3568Z" stroke="#FF3030" stroke-opacity="0.48" stroke-width="6" mask="url(#path-1-inside-1_39_201)"/>
<path d="M3.14013 12.049C3.14005 12.0327 3.14 12.0163 3.14 12C3.14 11.9879 3.14003 11.9758 3.14007 11.9638C3.13996 11.9922 3.13998 12.0206 3.14013 12.049Z" fill="#FF3030"/>
<path d="M12.4357 2.64022C12.4571 2.64007 12.4786 2.64 12.5 2.64C12.5183 2.64 12.5366 2.64005 12.5549 2.64016C12.5152 2.63992 12.4754 2.63994 12.4357 2.64022Z" fill="#FF3030"/>
<path d="M15.5241 20.8607C18.8955 19.7104 21.4009 16.6899 21.8033 13.0363L24.4262 13.3284C24.4709 12.9271 24.4952 12.5252 24.4994 12.1243C24.4327 18.6945 19.0859 24 12.5 24C9.26392 24 6.32702 22.719 4.16868 20.6365C5.46923 21.8911 7.04387 22.8429 8.78071 23.4091C10.2831 23.8988 11.8575 24.084 13.4137 23.9652C14.4153 23.8887 15.4094 23.6863 16.372 23.3582L16.376 23.3568L15.5241 20.8607Z" fill="#FF3030"/>
<path d="M3.77757 20.2413C3.37975 19.8203 3.01117 19.3691 2.67551 18.8905C1.27057 16.8874 0.513624 14.5058 0.500183 12.0663C0.517303 15.2315 1.75987 18.1066 3.77757 20.2413Z" fill="#FF3030"/>
<path d="M0.500114 11.9478C0.500603 11.8358 0.50266 11.7236 0.506297 11.6114C0.590445 9.01417 1.51541 6.51443 3.14214 4.48799C4.76886 2.46154 7.00944 1.0179 9.52703 0.374104C10.4784 0.130818 11.4499 0.00671907 12.42 0.000260175C5.84676 0.0431848 0.5281 5.37109 0.500114 11.9478Z" fill="#FF3030"/>
<path d="M12.5686 0.000190735C15.8138 0.0183479 18.7539 1.32467 20.9036 3.4338C19.8159 2.36673 18.5279 1.50975 17.103 0.917917C15.6563 0.317049 14.1157 0.00904556 12.5686 0.000190735Z" fill="#FF3030"/>
<path d="M21.1857 3.71997C21.8131 4.37806 22.3673 5.10915 22.8348 5.90156C23.6379 7.26247 24.1591 8.75955 24.3797 10.3047C24.4533 10.8209 24.4934 11.3425 24.4993 11.8662C24.4648 8.70848 23.2106 5.84346 21.1857 3.71997Z" fill="#FF3030"/>
<path d="M21.8596 12.0912C21.8602 12.0295 21.8602 11.9678 21.8595 11.9062C21.8599 11.9374 21.86 11.9687 21.86 12C21.86 12.0304 21.8599 12.0609 21.8596 12.0912Z" fill="#FF3030"/>
</svg>
