<svg width="31" height="48" viewBox="0 0 31 48" fill="none" xmlns="http://www.w3.org/2000/svg">
<path d="M25.2667 10.5C25.2667 11.0523 25.7144 11.5 26.2667 11.5C26.819 11.5 27.2667 11.0523 27.2667 10.5H25.2667ZM27.2667 37.5C27.2667 36.9477 26.819 36.5 26.2667 36.5C25.7144 36.5 25.2667 36.9477 25.2667 37.5H27.2667ZM13.2 23C12.6477 23 12.2 23.4477 12.2 24C12.2 24.5523 12.6477 25 13.2 25V23ZM30.7071 24.7071C31.0976 24.3166 31.0976 23.6834 30.7071 23.2929L24.3431 16.9289C23.9526 16.5384 23.3195 16.5384 22.9289 16.9289C22.5384 17.3195 22.5384 17.9526 22.9289 18.3431L28.5858 24L22.9289 29.6569C22.5384 30.0474 22.5384 30.6805 22.9289 31.0711C23.3195 31.4616 23.9526 31.4616 24.3431 31.0711L30.7071 24.7071ZM5.73333 7H22.5333V5H5.73333V7ZM22.5333 41H5.73333V43H22.5333V41ZM3 38V10H1V38H3ZM25.2667 10V10.5H27.2667V10H25.2667ZM25.2667 37.5V38H27.2667V37.5H25.2667ZM5.73333 41C4.28762 41 3 39.723 3 38H1C1 40.6953 3.05532 43 5.73333 43V41ZM22.5333 43C25.2113 43 27.2667 40.6953 27.2667 38H25.2667C25.2667 39.723 23.979 41 22.5333 41V43ZM22.5333 7C23.979 7 25.2667 8.27704 25.2667 10H27.2667C27.2667 7.30468 25.2113 5 22.5333 5V7ZM5.73333 5C3.05532 5 1 7.30468 1 10H3C3 8.27704 4.28762 7 5.73333 7V5ZM13.2 25L30 25V23L13.2 23V25Z" fill="#2F3342"/>
</svg>
