<svg width="126" height="74" viewBox="0 0 126 74" fill="none" xmlns="http://www.w3.org/2000/svg">
<path d="M16.8777 11.9628H0V28.881H16.8777V11.9628Z" fill="white"/>
<path d="M28.8119 0L16.8777 11.9628L28.8119 23.9257L40.7461 11.9628L28.8119 0Z" fill="white"/>
<path d="M57.6254 11.9628H40.748V28.881H57.6254V11.9628Z" fill="white"/>
<path d="M3.84448 44.7534L8.5339 50.5445L13.2234 44.7534H13.4415V55.352H16.8222V40.0551H13.1143L8.5339 45.7368L3.95353 40.0551H0.245599V55.352H3.62636V44.7534H3.84448Z" fill="white"/>
<path d="M24.5628 55.7891C25.348 55.7891 26.0895 55.6364 26.8093 55.3303C27.5073 55.0243 28.118 54.6094 28.6415 54.0845C29.1649 53.5818 29.5794 52.9703 29.8847 52.2927C30.19 51.6153 30.3428 50.8723 30.3428 50.1074C30.3428 49.3426 30.19 48.6214 29.8847 47.9221C29.5794 47.2447 29.1649 46.6328 28.6415 46.1083C28.118 45.6057 27.5073 45.1905 26.8093 44.8846C26.0895 44.5786 25.348 44.4257 24.5628 44.4257C23.7775 44.4257 23.0359 44.5786 22.3379 44.8846C21.6182 45.1905 21.0075 45.6057 20.484 46.1083C19.9605 46.6328 19.5461 47.2447 19.2408 47.9221C18.9354 48.6214 18.7827 49.3426 18.7827 50.1074C18.7827 50.8723 18.9354 51.6153 19.2408 52.2927C19.5461 52.9703 19.9605 53.5818 20.484 54.0845C21.0075 54.6094 21.6182 55.0243 22.3379 55.3303C23.0359 55.6364 23.7775 55.7891 24.5628 55.7891ZM24.5628 53.0575C24.2137 53.0575 23.8648 52.9703 23.5376 52.8172C23.2104 52.6861 22.9051 52.4676 22.6651 52.1834C22.4252 51.9212 22.2289 51.6153 22.0762 51.2438C21.9235 50.8942 21.8363 50.5226 21.8363 50.1074C21.8363 49.6922 21.9235 49.3207 22.0762 48.9492C22.2289 48.5996 22.4252 48.2936 22.6651 48.0095C22.9051 47.7473 23.2104 47.5288 23.5376 47.3758C23.8648 47.2228 24.2137 47.1573 24.5628 47.1573C24.9117 47.1573 25.2607 47.2228 25.5879 47.3758C25.915 47.5288 26.2204 47.7473 26.4603 48.0095C26.7002 48.2936 26.9184 48.5996 27.071 48.9492C27.2237 49.3207 27.2891 49.6922 27.2891 50.1074C27.2891 50.5226 27.2237 50.8942 27.071 51.2438C26.9184 51.6153 26.7002 51.9212 26.4603 52.1834C26.2204 52.4676 25.915 52.6642 25.5879 52.8172C25.2607 52.9703 24.9117 53.0575 24.5628 53.0575Z" fill="white"/>
<path d="M37.2099 55.7891C37.9733 55.7891 38.6495 55.6797 39.282 55.4614C39.8927 55.2426 40.4162 54.9588 40.8742 54.5872C41.3105 54.2378 41.6812 53.8223 41.9648 53.3419C42.2483 52.8825 42.4447 52.3801 42.5537 51.8557L39.5001 51.4186C39.3474 51.8557 39.0639 52.2272 38.6931 52.555C38.3223 52.8825 37.8206 53.0575 37.2099 53.0575C36.8828 53.0575 36.5556 52.9919 36.272 52.839C35.9667 52.6861 35.7049 52.4894 35.465 52.2272C35.2251 51.9868 35.0506 51.6808 34.9197 51.3093C34.767 50.9378 34.7016 50.5445 34.7016 50.1074C34.7016 49.6704 34.767 49.277 34.9197 48.9055C35.0506 48.534 35.2251 48.228 35.465 47.9658C35.7049 47.7254 35.9667 47.5288 36.272 47.3758C36.5556 47.2228 36.8828 47.1573 37.2099 47.1573C37.7552 47.1573 38.2132 47.2884 38.5404 47.5506C38.8676 47.8347 39.1293 48.1407 39.282 48.4684L42.3356 48.0314C42.2265 47.5943 42.0303 47.1573 41.7467 46.7202C41.4631 46.305 41.1142 45.9116 40.6779 45.562C40.2417 45.2342 39.7401 44.9501 39.1511 44.7316C38.5622 44.5349 37.9297 44.4257 37.2099 44.4257C36.4683 44.4257 35.7704 44.5786 35.0942 44.8846C34.4181 45.1905 33.8292 45.6057 33.3275 46.1083C32.8258 46.6328 32.4114 47.2447 32.1061 47.9221C31.8007 48.6214 31.648 49.3426 31.648 50.1074C31.648 50.8723 31.8007 51.6153 32.1061 52.2927C32.4114 52.9703 32.8258 53.5818 33.3275 54.0845C33.8292 54.6094 34.4181 55.0243 35.0942 55.3303C35.7704 55.6364 36.4683 55.7891 37.2099 55.7891Z" fill="white"/>
<path d="M51.7102 50.1074V49.8889C51.9065 49.8452 52.1028 49.7578 52.2555 49.6485C52.3864 49.5393 52.5172 49.4081 52.6263 49.2333C52.7352 49.0803 52.8006 48.8618 52.8006 48.5777V48.1407C52.8006 47.9221 52.866 47.7473 53.0189 47.5943C53.1718 47.4414 53.3458 47.3758 53.5641 47.3758H54.0002V44.6442H53.3458C52.1028 44.6442 51.2086 44.8627 50.6633 45.3216C50.118 45.7805 49.8562 46.3924 49.8562 47.1573V47.8129C49.8562 48.4029 49.5727 48.687 48.9838 48.687H47.1298V44.8627H44.0762V55.352H47.1298V51.4186H49.2019C49.7908 51.4186 50.0744 51.7027 50.0744 52.2927V53.0575C50.0744 53.8223 50.3361 54.4344 50.8814 54.8932C51.4267 55.352 52.3209 55.5708 53.5641 55.5708H54.2185V52.839H53.7825C53.5641 52.839 53.3896 52.7735 53.2372 52.6205C53.0843 52.4675 53.0189 52.2927 53.0189 52.0742V51.5279C53.0189 51.2437 52.9535 51.0252 52.8228 50.8504C52.6699 50.6756 52.5172 50.5226 52.3646 50.4134C52.1683 50.2822 51.9502 50.173 51.7102 50.1074Z" fill="white"/>
<path d="M60.8794 55.7891C61.6646 55.7891 62.4065 55.6364 63.1263 55.3303C63.8239 55.0243 64.4345 54.6094 64.9581 54.0845C65.4818 53.5818 65.8962 52.9703 66.2015 52.2927C66.5068 51.6153 66.6598 50.8723 66.6598 50.1074C66.6598 49.3426 66.5068 48.6214 66.2015 47.9221C65.8962 47.2447 65.4818 46.6328 64.9581 46.1083C64.4345 45.6057 63.8239 45.1905 63.1263 44.8846C62.4065 44.5786 61.6646 44.4257 60.8794 44.4257C60.0943 44.4257 59.3529 44.5786 58.6547 44.8846C57.935 45.1905 57.3244 45.6057 56.8007 46.1083C56.2771 46.6328 55.8627 47.2447 55.5574 47.9221C55.252 48.6214 55.0997 49.3426 55.0997 50.1074C55.0997 50.8723 55.252 51.6153 55.5574 52.2927C55.8627 52.9703 56.2771 53.5818 56.8007 54.0845C57.3244 54.6094 57.935 55.0243 58.6547 55.3303C59.3529 55.6364 60.0943 55.7891 60.8794 55.7891ZM60.8794 53.0575C60.5304 53.0575 60.1818 52.9703 59.8544 52.8172C59.5274 52.6861 59.2216 52.4676 58.9817 52.1834C58.7418 51.9212 58.5456 51.6153 58.3932 51.2438C58.2403 50.8942 58.1533 50.5226 58.1533 50.1074C58.1533 49.6922 58.2403 49.3207 58.3932 48.9492C58.5456 48.5996 58.7418 48.2936 58.9817 48.0095C59.2216 47.7473 59.5274 47.5288 59.8544 47.3758C60.1818 47.2228 60.5304 47.1573 60.8794 47.1573C61.2285 47.1573 61.5776 47.2228 61.9045 47.3758C62.232 47.5288 62.5373 47.7473 62.7772 48.0095C63.0171 48.2936 63.2349 48.5996 63.3878 48.9492C63.5408 49.3207 63.6061 49.6922 63.6061 50.1074C63.6061 50.5226 63.5408 50.8942 63.3878 51.2438C63.2349 51.6153 63.0171 51.9212 62.7772 52.1834C62.5373 52.4676 62.232 52.6642 61.9045 52.8172C61.5776 52.9703 61.2285 53.0575 60.8794 53.0575Z" fill="white"/>
<path d="M71.4545 47.2665H73.4177C73.636 47.2665 73.81 47.3321 73.9629 47.4851C74.1159 47.6381 74.1812 47.8128 74.1812 48.0314C74.1812 48.2499 74.1159 48.4247 73.9629 48.5777C73.81 48.7307 73.636 48.7963 73.4177 48.7963H71.4545V47.2665ZM74.1812 52.9481H71.4545V50.9815H74.1812C74.4644 50.9815 74.6827 51.069 74.8789 51.2656C75.0755 51.4623 75.1626 51.6808 75.1626 51.9649C75.1626 52.249 75.0755 52.4676 74.8789 52.6642C74.6827 52.8609 74.4644 52.9481 74.1812 52.9481ZM73.4177 44.8627H68.4009V55.352H74.0721C74.7481 55.352 75.3587 55.2648 75.9039 55.0898C76.4276 54.9149 76.8636 54.6966 77.2349 54.4122C77.5834 54.1284 77.8455 53.8223 78.0416 53.4507C78.2378 53.1014 78.3253 52.7516 78.3253 52.402C78.3253 51.8338 78.1945 51.3749 77.9546 51.0034C77.6926 50.6538 77.4094 50.3697 77.1257 50.173C76.755 49.9326 76.3622 49.7796 75.9261 49.6704V49.4518C76.1876 49.3426 76.4276 49.2114 76.6237 49.0585C76.7982 48.9055 76.9728 48.7307 77.1257 48.4903C77.2781 48.2499 77.3435 47.9658 77.3435 47.5943C77.3435 47.2665 77.2565 46.9388 77.0819 46.6109C76.9074 46.2832 76.6459 45.9991 76.3184 45.7368C75.9915 45.4746 75.577 45.256 75.0972 45.1031C74.5957 44.9501 74.0499 44.8627 73.4177 44.8627Z" fill="white"/>
<path d="M84.9862 55.7891C85.7498 55.7891 86.4258 55.6797 87.0585 55.4614C87.6692 55.2426 88.1922 54.9588 88.6505 54.5872C89.0866 54.2378 89.4578 53.8223 89.7409 53.3419C90.0246 52.8825 90.2208 52.3801 90.3299 51.8557L87.2763 51.4186C87.1239 51.8557 86.8402 52.2272 86.4695 52.555C86.0988 52.8825 85.5969 53.0575 84.9862 53.0575C84.6588 53.0575 84.3318 52.9919 84.0482 52.839C83.7429 52.6861 83.4813 52.4894 83.2414 52.2272C83.0015 51.9868 82.8269 51.6808 82.6962 51.3093C82.5432 50.9378 82.4779 50.5445 82.4779 50.1074C82.4779 49.6704 82.5432 49.277 82.6962 48.9055C82.8269 48.534 83.0015 48.228 83.2414 47.9658C83.4813 47.7254 83.7429 47.5288 84.0482 47.3758C84.3318 47.2228 84.6588 47.1573 84.9862 47.1573C85.5315 47.1573 85.9897 47.2884 86.3166 47.5506C86.6441 47.8347 86.9056 48.1407 87.0585 48.4684L90.1116 48.0314C90.003 47.5943 89.8063 47.1573 89.5232 46.7202C89.2395 46.305 88.8904 45.9116 88.4543 45.562C88.0182 45.2342 87.5163 44.9501 86.9272 44.7316C86.3388 44.5349 85.706 44.4257 84.9862 44.4257C84.2449 44.4257 83.5467 44.5786 82.8707 44.8846C82.1942 45.1905 81.6057 45.6057 81.1037 46.1083C80.6022 46.6328 80.1878 47.2447 79.8825 47.9221C79.5771 48.6214 79.4242 49.3426 79.4242 50.1074C79.4242 50.8723 79.5771 51.6153 79.8825 52.2927C80.1878 52.9703 80.6022 53.5818 81.1037 54.0845C81.6057 54.6094 82.1942 55.0243 82.8707 55.3303C83.5467 55.6364 84.2449 55.7891 84.9862 55.7891Z" fill="white"/>
<path d="M99.4866 50.1074V49.8889C99.6827 49.8452 99.8789 49.7578 100.032 49.6485C100.163 49.5393 100.293 49.4081 100.403 49.2333C100.512 49.0803 100.577 48.8618 100.577 48.5777V48.1407C100.577 47.9221 100.642 47.7473 100.795 47.5943C100.948 47.4414 101.122 47.3758 101.341 47.3758H101.777V44.6442H101.122C99.8789 44.6442 98.9846 44.8627 98.4394 45.3216C97.8941 45.7805 97.6326 46.3924 97.6326 47.1573V47.8129C97.6326 48.4029 97.3489 48.687 96.7599 48.687H94.9059V44.8627H91.8528V55.352H94.9059V51.4186H96.9782C97.5672 51.4186 97.8509 51.7027 97.8509 52.2927V53.0575C97.8509 53.8223 98.1124 54.4344 98.6577 54.8932C99.2029 55.352 100.097 55.5708 101.341 55.5708H101.995V52.839H101.558C101.341 52.839 101.166 52.7735 101.013 52.6205C100.861 52.4675 100.795 52.2927 100.795 52.0742V51.5279C100.795 51.2437 100.73 51.0252 100.599 50.8504C100.446 50.6756 100.293 50.5226 100.141 50.4134C99.9448 50.2822 99.7265 50.173 99.4866 50.1074Z" fill="white"/>
<path d="M103.525 44.8627V55.352H106.579L110.395 49.7796H110.614V55.352H113.667V44.8627H110.614L106.797 50.4352H106.579V44.8627H103.525Z" fill="white"/>
<path d="M120.962 43.2237C121.398 43.2237 121.812 43.1363 122.183 42.9833C122.554 42.8304 122.859 42.6337 123.143 42.3496C123.426 42.0655 123.645 41.7377 123.797 41.3662C123.95 40.9948 124.015 40.6014 124.015 40.1643H122.052C122.052 40.4921 121.965 40.7544 121.769 40.951C121.572 41.1477 121.289 41.257 120.962 41.257C120.635 41.257 120.373 41.1477 120.176 40.951C119.98 40.7544 119.871 40.4921 119.871 40.1643H117.908C117.908 40.6014 117.996 40.9948 118.148 41.3662C118.301 41.7377 118.497 42.0655 118.781 42.3496C119.064 42.6337 119.391 42.8304 119.762 42.9833C120.133 43.1363 120.526 43.2237 120.962 43.2237ZM115.858 44.8627V55.352H118.911L122.729 49.7796H122.946V55.352H126V44.8627H122.946L119.13 50.4352H118.911V44.8627H115.858Z" fill="white"/>
<path d="M0.0274852 63.0734V73.5629H3.08108V65.805H6.8981V73.5629H9.95166V63.0734H0.0274852Z" fill="white"/>
<path d="M17.4698 74C18.255 74 18.9966 73.8472 19.7163 73.5412C20.4143 73.2352 21.025 72.8197 21.5485 72.2954C22.072 71.7927 22.4864 71.1811 22.7917 70.5035C23.0971 69.8259 23.2498 69.0832 23.2498 68.3184C23.2498 67.5536 23.0971 66.832 22.7917 66.1327C22.4864 65.4557 22.072 64.8436 21.5485 64.3192C21.025 63.8165 20.4143 63.4011 19.7163 63.0956C18.9966 62.7895 18.255 62.6362 17.4698 62.6362C16.6846 62.6362 15.943 62.7895 15.245 63.0956C14.5252 63.4011 13.9145 63.8165 13.3911 64.3192C12.8676 64.8436 12.4531 65.4557 12.1478 66.1327C11.8424 66.832 11.6898 67.5536 11.6898 68.3184C11.6898 69.0832 11.8424 69.8259 12.1478 70.5035C12.4531 71.1811 12.8676 71.7927 13.3911 72.2954C13.9145 72.8197 14.5252 73.2352 15.245 73.5412C15.943 73.8472 16.6846 74 17.4698 74ZM17.4698 71.2683C17.1208 71.2683 16.7718 71.1811 16.4446 71.0278C16.1175 70.8968 15.8121 70.6785 15.5722 70.3941C15.3323 70.1319 15.136 69.8259 14.9833 69.4548C14.8306 69.1049 14.7433 68.7333 14.7433 68.3184C14.7433 67.9029 14.8306 67.5313 14.9833 67.1598C15.136 66.8104 15.3323 66.5043 15.5722 66.2205C15.8121 65.9583 16.1175 65.7395 16.4446 65.5867C16.7718 65.4334 17.1208 65.3679 17.4698 65.3679C17.8187 65.3679 18.1678 65.4334 18.4949 65.5867C18.8221 65.7395 19.1275 65.9583 19.3674 66.2205C19.6073 66.5043 19.8254 66.8104 19.9781 67.1598C20.1308 67.5313 20.1962 67.9029 20.1962 68.3184C20.1962 68.7333 20.1308 69.1049 19.9781 69.4548C19.8254 69.8259 19.6073 70.1319 19.3674 70.3941C19.1275 70.6785 18.8221 70.8751 18.4949 71.0278C18.1678 71.1811 17.8187 71.2683 17.4698 71.2683Z" fill="white"/>
<path d="M30.117 74C30.8803 74 31.5565 73.8906 32.1891 73.6723C32.7998 73.4535 33.3232 73.1696 33.7813 72.798C34.2175 72.4486 34.5883 72.0332 34.8718 71.5527C35.1554 71.0934 35.3517 70.5907 35.4608 70.0664L32.4072 69.6292C32.2545 70.0664 31.9709 70.438 31.6002 70.7657C31.2294 71.0934 30.7277 71.2683 30.117 71.2683C29.7898 71.2683 29.4626 71.2028 29.1791 71.05C28.8737 70.8968 28.612 70.7001 28.3721 70.438C28.1321 70.1975 27.9576 69.8914 27.8268 69.5204C27.6741 69.1488 27.6087 68.7555 27.6087 68.3184C27.6087 67.8813 27.6741 67.488 27.8268 67.1164C27.9576 66.7448 28.1321 66.4388 28.3721 66.1766C28.612 65.9361 28.8737 65.7395 29.1791 65.5867C29.4626 65.4334 29.7898 65.3679 30.117 65.3679C30.6622 65.3679 31.1203 65.499 31.4475 65.7612C31.7746 66.0455 32.0363 66.3516 32.1891 66.6793L35.2426 66.2422C35.1336 65.805 34.9373 65.3679 34.6537 64.9308C34.3702 64.5159 34.0212 64.1226 33.585 63.7727C33.1488 63.445 32.6471 63.1611 32.0582 62.9423C31.4693 62.7457 30.8367 62.6362 30.117 62.6362C29.3754 62.6362 28.6774 62.7895 28.0013 63.0956C27.3251 63.4011 26.7362 63.8165 26.2345 64.3192C25.7329 64.8436 25.3185 65.4557 25.0131 66.1327C24.7078 66.832 24.5551 67.5536 24.5551 68.3184C24.5551 69.0832 24.7078 69.8259 25.0131 70.5035C25.3185 71.1811 25.7329 71.7927 26.2345 72.2954C26.7362 72.8197 27.3251 73.2352 28.0013 73.5412C28.6774 73.8472 29.3754 74 30.117 74Z" fill="white"/>
<path d="M35.8979 63.0734V65.805H39.1695V73.5629H42.2231V65.805H45.4949V63.0734H35.8979Z" fill="white"/>
<path d="M54.3277 67.2253V69.4109C54.1531 69.7825 53.9348 70.088 53.6949 70.3507C53.4988 70.5907 53.2372 70.7873 52.9535 70.9845C52.6481 71.1811 52.2991 71.2683 51.9283 71.2683C51.2086 71.2683 50.6197 71.0062 50.1398 70.4818C49.66 69.9792 49.4201 69.2577 49.4201 68.3184C49.4201 67.3786 49.66 66.6576 50.1398 66.1327C50.6197 65.6301 51.2086 65.3679 51.9283 65.3679C52.2991 65.3679 52.6481 65.4557 52.9535 65.6523C53.2372 65.8489 53.4988 66.0672 53.6949 66.3077C53.9348 66.5699 54.1531 66.8759 54.3277 67.2253ZM46.3664 68.3184C46.3664 69.1266 46.4973 69.8914 46.7808 70.5907C47.0644 71.29 47.4352 71.8804 47.8932 72.3831C48.3513 72.8852 48.8748 73.279 49.4637 73.5845C50.0526 73.8689 50.6415 74 51.274 74C51.7757 74 52.2119 73.9345 52.5827 73.7817C52.9535 73.6284 53.2372 73.4318 53.4771 73.2352C53.7387 73.0169 53.957 72.7542 54.1094 72.4703H54.3277V73.5629H57.3813V63.0734H54.3277V64.1659H54.1094C53.957 63.8821 53.7387 63.6416 53.4771 63.4011C53.2372 63.2045 52.9535 63.03 52.5827 62.8768C52.2119 62.724 51.7757 62.6362 51.274 62.6362C50.6415 62.6362 50.0526 62.7673 49.4637 63.0517C48.8748 63.3356 48.3513 63.7293 47.8932 64.2315C47.4352 64.7341 47.0644 65.3462 46.7808 66.0455C46.4973 66.7448 46.3664 67.5097 46.3664 68.3184Z" fill="white"/>
<path d="M62.8331 67.007L65.6684 70.5035L68.5043 67.007H68.722V73.5629H71.7757V63.0734H68.5043L65.6684 66.5699L62.8331 63.0734H59.5617V73.5629H62.6148V67.007H62.8331Z" fill="white"/>
<path d="M81.4855 67.2253V69.4109C81.3109 69.7825 81.0926 70.088 80.8527 70.3507C80.6565 70.5907 80.395 70.7873 80.1113 70.9845C79.806 71.1811 79.4569 71.2683 79.0862 71.2683C78.3664 71.2683 77.7775 71.0062 77.2976 70.4818C76.8178 69.9792 76.5778 69.2577 76.5778 68.3184C76.5778 67.3786 76.8178 66.6576 77.2976 66.1327C77.7775 65.6301 78.3664 65.3679 79.0862 65.3679C79.4569 65.3679 79.806 65.4557 80.1113 65.6523C80.395 65.8489 80.6565 66.0672 80.8527 66.3077C81.0926 66.5699 81.3109 66.8759 81.4855 67.2253ZM73.5242 68.3184C73.5242 69.1266 73.655 69.8914 73.9387 70.5907C74.2224 71.29 74.5931 71.8804 75.0508 72.3831C75.509 72.8852 76.0326 73.279 76.6216 73.5845C77.2101 73.8689 77.7991 74 78.4318 74C78.9333 74 79.3694 73.9345 79.7406 73.7817C80.1113 73.6284 80.395 73.4318 80.6349 73.2352C80.8965 73.0169 81.1148 72.7542 81.2672 72.4703H81.4855V73.5629H84.5391V63.0734H81.4855V64.1659H81.2672C81.1148 63.8821 80.8965 63.6416 80.6349 63.4011C80.395 63.2045 80.1113 63.03 79.7406 62.8768C79.3694 62.724 78.9333 62.6362 78.4318 62.6362C77.7991 62.6362 77.2101 62.7673 76.6216 63.0517C76.0326 63.3356 75.509 63.7293 75.0508 64.2315C74.5931 64.7341 74.2224 65.3462 73.9387 66.0455C73.655 66.7448 73.5242 67.5097 73.5242 68.3184Z" fill="white"/>
<path d="M85.8468 63.0734V65.805H89.1182V73.5629H92.1718V65.805H95.4437V63.0734H85.8468Z" fill="white"/>
</svg>
