<svg width="275" height="60" viewBox="0 0 275 60" fill="none" xmlns="http://www.w3.org/2000/svg">
<path d="M146.298 29.4745L151.205 35.5138L156.178 29.4745H156.39V40.5141H159.956V24.6041H156.047L151.238 30.5298L146.412 24.6041H142.503V40.5466H146.069V29.4745H146.298Z" fill="#2F3342"/>
<path d="M168.103 41.0156C168.919 41.0186 169.727 40.8527 170.475 40.5286C171.195 40.2138 171.85 39.7678 172.405 39.2136C172.957 38.6794 173.401 38.0457 173.714 37.3466C174.035 36.6317 174.197 35.8564 174.188 35.0737C174.195 34.2859 174.034 33.5056 173.714 32.7846C173.397 32.0829 172.953 31.4446 172.405 30.9014C171.844 30.3631 171.19 29.9287 170.475 29.6189C169.724 29.3073 168.917 29.1472 168.103 29.1481C167.299 29.1472 166.504 29.3073 165.764 29.6189C165.039 29.9208 164.379 30.3559 163.817 30.9014C163.269 31.4446 162.826 32.0829 162.509 32.7846C162.184 33.5046 162.016 34.2848 162.018 35.0737C162.015 35.8575 162.183 36.6328 162.509 37.3466C162.822 38.0457 163.266 38.6794 163.817 39.2136C164.374 39.7693 165.035 40.2107 165.764 40.5124C166.499 40.8423 167.296 41.0138 168.103 41.0156ZM168.103 38.1583C167.73 38.1493 167.363 38.0666 167.023 37.9148C166.672 37.7626 166.36 37.5353 166.107 37.2492C165.85 36.9589 165.64 36.6301 165.486 36.2751C165.299 35.9063 165.193 35.5024 165.175 35.09C165.173 34.6718 165.256 34.2575 165.42 33.8724C165.583 33.5215 165.792 33.1938 166.042 32.8983C166.303 32.6219 166.614 32.3962 166.958 32.2327C167.297 32.0786 167.665 32.001 168.038 32.0054C168.41 31.9994 168.779 32.0771 169.117 32.2327C169.464 32.392 169.775 32.6183 170.033 32.8983C170.299 33.1887 170.52 33.5171 170.688 33.8724C170.846 34.2586 170.924 34.6729 170.917 35.09C170.925 35.4966 170.847 35.9003 170.688 36.2751C170.528 36.6348 170.306 36.9644 170.033 37.2492C169.78 37.5341 169.467 37.7612 169.117 37.9148C168.798 38.0599 168.454 38.1426 168.103 38.1583Z" fill="#2F3342"/>
<path d="M181.435 41.0211C182.175 41.0306 182.912 40.9097 183.61 40.6639C184.204 40.4564 184.757 40.1488 185.246 39.7548C185.712 39.3982 186.106 38.9576 186.407 38.456C186.698 37.979 186.908 37.458 187.029 36.9137L183.757 36.4591C183.582 36.9204 183.289 37.3287 182.907 37.6443C182.471 38.0019 181.918 38.1869 181.353 38.1638C181.006 38.1732 180.663 38.095 180.355 37.9365C180.032 37.7835 179.743 37.5683 179.504 37.3033C179.245 37.0299 179.049 36.7028 178.932 36.3455C178.773 35.9478 178.696 35.523 178.703 35.0954C178.693 34.6624 178.771 34.2318 178.932 33.8291C179.057 33.4704 179.251 33.1395 179.504 32.855C179.752 32.6051 180.04 32.3968 180.355 32.2381C180.663 32.0796 181.006 32.0014 181.353 32.0108C181.849 31.9908 182.337 32.1334 182.743 32.4167C183.064 32.6832 183.331 33.0084 183.528 33.3746L186.8 32.92C186.683 32.4299 186.472 31.9669 186.178 31.5563C185.875 31.0993 185.499 30.6937 185.066 30.3549C184.567 29.9848 184.016 29.6894 183.43 29.4782C182.775 29.2702 182.09 29.1661 181.402 29.1698C180.63 29.1707 179.867 29.331 179.161 29.6406C178.471 29.9517 177.844 30.3865 177.313 30.9231C176.773 31.4704 176.336 32.1079 176.02 32.8063C175.7 33.5273 175.539 34.3076 175.546 35.0954C175.537 35.8781 175.699 36.6534 176.02 37.3683C176.345 38.0601 176.794 38.6873 177.345 39.219C177.872 39.7657 178.499 40.2066 179.194 40.5178C179.895 40.8457 180.66 41.0175 181.435 41.0211Z" fill="#2F3342"/>
<path d="M196.694 35.0932V34.8659C196.898 34.8131 197.092 34.7252 197.266 34.6062C197.425 34.4876 197.559 34.3385 197.659 34.1679C197.81 33.9723 197.89 33.7323 197.888 33.486V33.0314C197.886 32.9264 197.905 32.8219 197.944 32.7244C197.984 32.6269 198.043 32.5383 198.118 32.464C198.192 32.3897 198.282 32.3312 198.38 32.292C198.478 32.2528 198.583 32.2337 198.689 32.2359H199.147V29.476H198.46C197.465 29.3904 196.469 29.636 195.63 30.1741C195.353 30.4091 195.134 30.7039 194.989 31.0359C194.845 31.368 194.779 31.7285 194.796 32.0898V32.723C194.813 32.8477 194.8 32.9745 194.759 33.0935C194.718 33.2124 194.649 33.3203 194.559 33.4084C194.468 33.4966 194.358 33.5627 194.238 33.6015C194.117 33.6403 193.989 33.6508 193.864 33.6321H191.868V29.6221H188.597V40.5481H191.868V36.4569H194.06C194.184 36.4404 194.309 36.4526 194.427 36.4927C194.545 36.5328 194.652 36.5996 194.739 36.6879C194.827 36.7761 194.892 36.8834 194.93 37.0011C194.969 37.1188 194.979 37.2438 194.96 37.3661V38.1616C194.944 38.5259 195.014 38.8889 195.164 39.2215C195.315 39.5541 195.542 39.8472 195.827 40.0773C196.656 40.6245 197.648 40.8764 198.64 40.7916H199.327V37.9343H198.869C198.763 37.9365 198.658 37.9174 198.56 37.8783C198.462 37.8391 198.372 37.7805 198.297 37.7062C198.223 37.6319 198.164 37.5433 198.124 37.4458C198.085 37.3483 198.065 37.2439 198.068 37.1388V36.5706C198.082 36.3199 198.02 36.0706 197.888 35.8563C197.741 35.6878 197.576 35.5354 197.397 35.4017C197.179 35.2648 196.942 35.1609 196.694 35.0932Z" fill="#2F3342"/>
<path d="M206.345 41.0156C207.161 41.0172 207.969 40.8514 208.717 40.5286C209.437 40.2139 210.092 39.7678 210.647 39.2136C211.193 38.675 211.637 38.0424 211.956 37.3466C212.269 36.6293 212.431 35.8556 212.43 35.0738C212.429 34.2868 212.268 33.5081 211.956 32.7847C211.633 32.0862 211.19 31.4489 210.647 30.9014C210.086 30.3631 209.432 29.9287 208.717 29.6189C207.965 29.3089 207.159 29.1489 206.345 29.1481C205.541 29.1458 204.745 29.306 204.006 29.6189C203.281 29.9208 202.621 30.356 202.059 30.9014C201.506 31.4404 201.062 32.0797 200.751 32.7847C200.426 33.5046 200.258 34.2848 200.26 35.0738C200.257 35.8576 200.425 36.6328 200.751 37.3466C201.058 38.049 201.503 38.6837 202.059 39.2136C202.616 39.7693 203.277 40.2107 204.006 40.5124C204.741 40.8437 205.538 41.0153 206.345 41.0156ZM206.345 38.1583C205.972 38.1494 205.605 38.0666 205.265 37.9148C204.942 37.7561 204.657 37.5289 204.431 37.2492C204.174 36.9589 203.964 36.6302 203.81 36.2751C203.645 35.9014 203.562 35.4977 203.564 35.09C203.562 34.6718 203.646 34.2575 203.81 33.8724C203.972 33.5215 204.181 33.1938 204.431 32.8983C204.689 32.6183 205 32.392 205.347 32.2327C205.686 32.0787 206.054 32.001 206.427 32.0054C206.799 31.9994 207.168 32.0771 207.506 32.2327C207.853 32.392 208.165 32.6183 208.422 32.8983C208.688 33.1887 208.909 33.5171 209.077 33.8724C209.228 34.2608 209.306 34.6736 209.306 35.09C209.305 35.4958 209.227 35.8977 209.077 36.2751C208.917 36.6348 208.696 36.9644 208.422 37.2492C208.169 37.5341 207.857 37.7612 207.506 37.9148C207.142 38.0795 206.745 38.1626 206.345 38.1583Z" fill="#2F3342"/>
<path d="M217.522 32.1197H219.583C219.689 32.1175 219.794 32.1366 219.892 32.1758C219.99 32.2149 220.079 32.2735 220.154 32.3478C220.229 32.4221 220.288 32.5107 220.328 32.6082C220.367 32.7057 220.386 32.8101 220.384 32.9152C220.39 33.0207 220.372 33.1262 220.332 33.2243C220.293 33.3224 220.232 33.4108 220.155 33.4834C220.081 33.5593 219.992 33.6188 219.893 33.6579C219.795 33.6971 219.689 33.7151 219.583 33.7107H217.522V32.1197ZM220.384 38.0454H217.522V35.9673H220.384C220.521 35.9594 220.658 35.9814 220.785 36.0319C220.912 36.0824 221.027 36.1601 221.12 36.2595C221.218 36.3548 221.296 36.4684 221.349 36.5939C221.402 36.7193 221.43 36.854 221.43 36.9901C221.43 37.1262 221.402 37.2609 221.349 37.3863C221.296 37.5118 221.218 37.6254 221.12 37.7207C221.023 37.8267 220.904 37.9107 220.772 37.9667C220.639 38.0228 220.496 38.0496 220.351 38.0454H220.384ZM219.583 29.6196H214.25V40.5455H220.221C220.874 40.557 221.524 40.4694 222.151 40.2857C222.654 40.1208 223.128 39.8799 223.557 39.5714C223.906 39.2953 224.195 38.9531 224.408 38.5649C224.597 38.2326 224.698 37.8585 224.703 37.4771C224.722 36.9621 224.585 36.4533 224.31 36.016C224.068 35.6861 223.775 35.3958 223.443 35.1556C223.057 34.9099 222.631 34.734 222.183 34.6361V34.3439C222.446 34.2355 222.694 34.0936 222.92 33.9218C223.118 33.7498 223.294 33.5534 223.443 33.3373C223.614 33.0539 223.694 32.7254 223.672 32.3957C223.665 32.0373 223.569 31.6861 223.394 31.3729C223.192 31.0186 222.919 30.7091 222.592 30.4638C222.206 30.1658 221.768 29.9402 221.3 29.7981C220.729 29.6512 220.139 29.591 219.55 29.6196H219.583Z" fill="#2F3342"/>
<path d="M231.733 41.021C232.463 41.0281 233.188 40.9072 233.876 40.6639C234.469 40.4549 235.022 40.1475 235.512 39.7547C235.972 39.3975 236.361 38.9568 236.657 38.456C236.954 37.9823 237.164 37.4602 237.278 36.9137L234.007 36.4591C233.831 36.9204 233.538 37.3287 233.156 37.6442C232.699 38.0215 232.113 38.2077 231.52 38.1637C231.179 38.1718 230.841 38.0936 230.539 37.9365C230.214 37.7794 229.92 37.5649 229.672 37.3033C229.417 37.0289 229.227 36.7017 229.116 36.3455C228.952 35.9489 228.868 35.5241 228.87 35.0954C228.866 34.6613 228.95 34.2307 229.116 33.8291C229.235 33.4713 229.424 33.1404 229.672 32.855C229.929 32.6083 230.221 32.4004 230.539 32.2381C230.841 32.0809 231.179 32.0027 231.52 32.0108C232.021 31.9919 232.515 32.1343 232.927 32.4167C233.314 32.6585 233.639 32.9864 233.876 33.3745L237.147 32.9199C237.016 32.4348 236.806 31.9742 236.526 31.5562C236.216 31.0989 235.835 30.6934 235.397 30.3549C234.899 29.9833 234.348 29.6878 233.761 29.4782C233.1 29.2711 232.41 29.167 231.717 29.1697C230.95 29.169 230.192 29.3295 229.492 29.6405C228.794 29.9472 228.162 30.3824 227.627 30.9231C227.094 31.4754 226.658 32.1118 226.335 32.8063C226.023 33.5297 225.861 34.3084 225.861 35.0954C225.86 35.8773 226.021 36.6509 226.335 37.3682C226.66 38.0555 227.103 38.6817 227.644 39.219C228.173 39.7695 228.807 40.2109 229.508 40.5178C230.203 40.8469 230.963 41.0188 231.733 41.021Z" fill="#2F3342"/>
<path d="M246.962 35.0937V34.8664C247.169 34.8199 247.364 34.7315 247.535 34.6066C247.694 34.488 247.827 34.339 247.927 34.1683C248.066 33.9686 248.135 33.729 248.123 33.4864V33.0319C248.116 32.822 248.192 32.6178 248.336 32.4637C248.412 32.3865 248.504 32.3264 248.606 32.2872C248.707 32.248 248.816 32.2307 248.925 32.2364H249.383V29.4765H248.68C247.689 29.3895 246.699 29.6354 245.866 30.1746C245.587 30.4087 245.365 30.703 245.218 31.0349C245.07 31.3669 245.001 31.7278 245.016 32.0903V32.7234C245.035 32.8472 245.025 32.9739 244.986 33.0931C244.947 33.2122 244.88 33.3205 244.79 33.4092C244.701 33.4978 244.592 33.5642 244.472 33.603C244.352 33.6419 244.224 33.652 244.099 33.6326H242.137V29.6226H238.865V40.5485H242.137V36.4574H244.328C244.453 36.438 244.581 36.4481 244.701 36.4869C244.821 36.5257 244.93 36.5922 245.019 36.6808C245.109 36.7694 245.176 36.8777 245.215 36.9969C245.254 37.1161 245.264 37.2427 245.245 37.3665V38.162C245.229 38.5247 245.298 38.886 245.445 39.2181C245.593 39.5503 245.815 39.8444 246.095 40.0777C246.931 40.625 247.928 40.8767 248.925 40.7921H249.612V37.9348H249.154C249.05 37.9369 248.948 37.9178 248.852 37.8787C248.756 37.8396 248.67 37.7813 248.598 37.7075C248.519 37.635 248.457 37.547 248.415 37.4491C248.372 37.3513 248.351 37.2457 248.352 37.1393V36.571C248.362 36.3186 248.294 36.0693 248.156 35.8567C248.009 35.6882 247.845 35.5358 247.665 35.4021C247.451 35.2593 247.213 35.1549 246.962 35.0937Z" fill="#2F3342"/>
<path d="M251.249 29.6194V40.5453H254.521L258.414 34.7495H258.659V40.5453H261.931V29.6194H258.659L254.701 35.4314H254.472V29.6194H251.249Z" fill="#2F3342"/>
<path d="M269.618 27.8457C270.062 27.8427 270.501 27.7545 270.91 27.5859C271.286 27.4358 271.626 27.209 271.908 26.9203C272.203 26.6278 272.437 26.2801 272.595 25.8975C272.754 25.4999 272.832 25.0751 272.824 24.6475H270.763C270.771 24.7992 270.747 24.9508 270.694 25.0931C270.64 25.2355 270.558 25.3655 270.452 25.4754C270.341 25.5788 270.209 25.6592 270.066 25.7121C269.923 25.7651 269.771 25.7895 269.618 25.7839C269.31 25.7916 269.012 25.6811 268.784 25.4754C268.572 25.2511 268.455 24.9548 268.457 24.6475H266.396C266.369 25.0945 266.436 25.5423 266.592 25.9625C266.733 26.3464 266.956 26.6953 267.246 26.9853C267.544 27.2698 267.894 27.4956 268.277 27.6509C268.705 27.808 269.162 27.8744 269.618 27.8457ZM264.237 29.4692V40.5412H267.508L271.499 34.7454H271.728V40.5412H275V29.6153H271.728L267.688 35.4273H267.459V29.6153L264.237 29.4692Z" fill="#2F3342"/>
<path d="M142.275 48.5972V59.5393H145.547V51.422H149.505V59.5393H152.777V48.5972H142.275Z" fill="#2F3342"/>
<path d="M160.647 59.9967C161.456 59.9959 162.257 59.8358 163.003 59.5259C163.721 59.2144 164.375 58.7741 164.933 58.2271C165.486 57.6942 165.93 57.0603 166.241 56.3602C166.565 55.6426 166.732 54.8653 166.732 54.0792C166.732 53.2931 166.565 52.5158 166.241 51.7982C165.931 51.0883 165.487 50.4436 164.933 49.8988C164.374 49.362 163.719 48.9326 163.003 48.6324C162.26 48.3116 161.458 48.146 160.647 48.146C159.837 48.146 159.035 48.3116 158.292 48.6324C157.57 48.9325 156.91 49.3618 156.345 49.8988C155.802 50.4521 155.359 51.0948 155.037 51.7982C154.724 52.5186 154.562 53.2948 154.562 54.0792C154.562 54.8636 154.724 55.6398 155.037 56.3602C155.359 57.054 155.802 57.6861 156.345 58.2271C156.91 58.7729 157.569 59.2129 158.292 59.5259C159.037 59.8375 159.838 59.9976 160.647 59.9967ZM160.647 57.1557C160.272 57.1504 159.903 57.0617 159.568 56.8959C159.209 56.7561 158.89 56.5335 158.635 56.2465C158.38 55.952 158.175 55.6173 158.03 55.2562C157.857 54.8846 157.768 54.4803 157.768 54.0711C157.773 53.6572 157.862 53.2485 158.03 52.8697C158.186 52.5143 158.39 52.1812 158.635 51.8794C158.907 51.6127 159.222 51.3932 159.568 51.23C159.906 51.0744 160.275 50.9967 160.647 51.0027C161.02 50.9983 161.388 51.076 161.727 51.23C162.068 51.3923 162.378 51.612 162.643 51.8794C162.904 52.1762 163.119 52.5099 163.281 52.8697C163.438 53.2506 163.516 53.6593 163.51 54.0711C163.521 54.4779 163.443 54.8823 163.281 55.2562C163.131 55.6221 162.914 55.9577 162.643 56.2465C162.386 56.523 162.074 56.7441 161.727 56.8959C161.391 57.0601 161.022 57.1488 160.647 57.1557Z" fill="#2F3342"/>
<path d="M173.959 59.9912C174.699 60.0004 175.434 59.8851 176.135 59.6503C176.726 59.4379 177.279 59.1308 177.77 58.7411C178.227 58.3793 178.615 57.9395 178.915 57.4423C179.207 56.966 179.417 56.4448 179.537 55.9001L176.266 55.4292C176.1 55.8916 175.812 56.301 175.431 56.6144C174.973 56.9901 174.389 57.1813 173.796 57.1501C173.455 57.1499 173.119 57.0721 172.814 56.9228C172.49 56.764 172.201 56.5433 171.964 56.2735C171.695 56.0067 171.498 55.6773 171.391 55.3156C171.216 54.9224 171.132 54.4952 171.146 54.0655C171.134 53.636 171.218 53.2092 171.391 52.8155C171.506 52.4522 171.701 52.1192 171.964 51.8414C172.207 51.5864 172.495 51.3774 172.814 51.2245C173.117 51.0673 173.454 50.9891 173.796 50.9972C174.292 50.9694 174.783 51.1128 175.186 51.403C175.516 51.661 175.784 51.9881 175.971 52.3609L179.243 51.9063C179.112 51.4212 178.902 50.9605 178.621 50.5426C178.308 50.0835 177.927 49.6732 177.492 49.325C176.447 48.531 175.161 48.1132 173.845 48.1399C173.076 48.1371 172.316 48.3034 171.62 48.6269C170.923 48.9281 170.291 49.3578 169.755 49.8932C169.222 50.4514 168.785 51.0932 168.463 51.7927C168.15 52.5131 167.989 53.2892 167.989 54.0737C167.989 54.8581 168.15 55.6342 168.463 56.3546C168.786 57.0441 169.223 57.6751 169.755 58.2216C170.289 58.7672 170.922 59.2078 171.62 59.5204C172.355 59.8475 173.154 60.0084 173.959 59.9912Z" fill="#2F3342"/>
<path d="M180.044 48.5972V51.4545H183.496V59.5718H186.767V51.4545H190.219V48.5972H180.044Z" fill="#2F3342"/>
<path d="M199.525 52.9362V55.209C199.346 55.5668 199.12 55.8997 198.854 56.1994C198.622 56.4493 198.358 56.6676 198.069 56.8487C197.748 57.0555 197.372 57.1629 196.989 57.1572C196.634 57.1637 196.281 57.0929 195.956 56.9499C195.632 56.8069 195.342 56.595 195.108 56.3292C194.561 55.7077 194.285 54.8962 194.34 54.0726C194.294 53.2454 194.569 52.4323 195.108 51.7998C195.348 51.544 195.64 51.3411 195.964 51.2041C196.288 51.067 196.637 50.999 196.989 51.0043C197.371 50.9927 197.746 51.0945 198.069 51.2965C198.356 51.4937 198.619 51.7224 198.854 51.9783C199.113 52.272 199.338 52.5932 199.525 52.9362ZM191.133 54.0726C191.119 54.8841 191.269 55.6903 191.575 56.4429C191.846 57.1292 192.24 57.7616 192.736 58.3099C193.201 58.821 193.756 59.2445 194.372 59.5599C194.956 59.8507 195.6 60.0009 196.253 59.9983C196.722 60.0129 197.189 59.9357 197.627 59.771C197.97 59.6293 198.29 59.4378 198.576 59.2028C198.843 58.9808 199.065 58.7109 199.23 58.4073H199.525V59.5437H202.796V48.6015H199.525V49.7542H199.279C199.11 49.4483 198.889 49.1737 198.625 48.9425C198.333 48.7243 198.014 48.5443 197.676 48.4067C197.225 48.2241 196.741 48.1356 196.253 48.147C195.59 48.147 194.936 48.2969 194.34 48.5853C193.72 48.8895 193.165 49.3083 192.704 49.8191C192.207 50.3733 191.814 51.011 191.542 51.7024C191.225 52.4527 191.064 53.2589 191.068 54.0726H191.133Z" fill="#2F3342"/>
<path d="M208.409 52.7034L211.386 56.3562L214.379 52.7034H214.608V59.5382H217.879V48.5961H214.444L211.386 52.2002L208.409 48.5474H204.957V59.4895H208.229V52.7034H208.409Z" fill="#2F3342"/>
<path d="M228.036 52.9354V55.2083C227.868 55.5686 227.648 55.9023 227.381 56.1986C227.15 56.4485 226.886 56.6668 226.596 56.848C226.275 57.0548 225.899 57.1621 225.517 57.1564C225.161 57.1629 224.809 57.0922 224.484 56.9491C224.159 56.8061 223.869 56.5943 223.636 56.3285C223.367 56.0199 223.162 55.6618 223.033 55.2745C222.904 54.8873 222.853 54.4786 222.883 54.0718C222.833 53.2468 223.103 52.4339 223.636 51.799C223.876 51.5432 224.167 51.3403 224.491 51.2033C224.815 51.0663 225.165 50.9982 225.517 51.0035C225.898 50.992 226.274 51.0937 226.596 51.2957C226.883 51.4929 227.146 51.7216 227.381 51.9776C227.64 52.2677 227.86 52.5896 228.036 52.9354ZM219.661 54.0718C219.654 54.8827 219.804 55.6873 220.102 56.4421C220.374 57.1285 220.767 57.7608 221.264 58.3091C221.725 58.8237 222.28 59.2478 222.9 59.5592C223.493 59.855 224.149 60.0053 224.813 59.9975C225.282 60.0121 225.749 59.9349 226.187 59.7702C226.53 59.6285 226.85 59.437 227.136 59.202C227.408 58.9804 227.635 58.7107 227.807 58.4065H228.019V59.5429H231.291V48.6007H228.019V49.7534H227.823C227.647 49.4471 227.421 49.1727 227.152 48.9417C226.861 48.7235 226.542 48.5435 226.204 48.4059C225.768 48.2298 225.301 48.1415 224.83 48.1462C224.167 48.1462 223.512 48.2961 222.916 48.5845C222.294 48.8845 221.738 49.3039 221.28 49.8183C220.783 50.3725 220.39 51.0102 220.119 51.7016C219.815 52.4553 219.659 53.2599 219.661 54.0718Z" fill="#2F3342"/>
<path d="M232.634 48.5972V51.4545H236.086V59.5718H239.357V51.4545H242.792V48.5972H232.634Z" fill="#2F3342"/>
<path d="M35.0667 24.5985H0V59.4021H35.0667V24.5985Z" fill="#FF1935"/>
<path d="M59.8548 0L35.067 24.6018L59.8548 49.2182L84.6573 24.6018L59.8548 0Z" fill="#FF1935"/>
<path d="M119.799 24.5985H84.6584V59.4021H119.799V24.5985Z" fill="#FF1935"/>
</svg>
