<svg width="24" height="24" viewBox="0 0 24 24" fill="none" xmlns="http://www.w3.org/2000/svg">
<path d="M22 20.75V10.125C22 9.73155 21.8148 9.36107 21.5 9.125L12.75 2.5625C12.3056 2.22917 11.6944 2.22917 11.25 2.5625L2.5 9.125C2.18524 9.36107 2 9.73155 2 10.125V20.75C2 21.4404 2.55964 22 3.25 22H6.22746C6.70092 22 7.13375 21.7325 7.34549 21.309L9.15451 17.691C9.36625 17.2675 9.79908 17 10.2725 17H12H13.7275C14.2009 17 14.6338 17.2675 14.8455 17.691L16.6545 21.309C16.8662 21.7325 17.2991 22 17.7725 22H20.75C21.4404 22 22 21.4404 22 20.75Z" stroke="#9DA1AE"/>
</svg>
