<svg width="24" height="24" viewBox="0 0 24 24" fill="none" xmlns="http://www.w3.org/2000/svg">
<path fill-rule="evenodd" clip-rule="evenodd" d="M15 10C15 11.6569 13.6569 13 12 13C10.3431 13 9 11.6569 9 10C9 8.34315 10.3431 7 12 7C13.6569 7 15 8.34315 15 10ZM14 10C14 11.1046 13.1046 12 12 12C10.8954 12 10 11.1046 10 10C10 8.89543 10.8954 8 12 8C13.1046 8 14 8.89543 14 10Z" fill="#9DA1AE"/>
<path fill-rule="evenodd" clip-rule="evenodd" d="M20 10C20 14.4183 12 22 12 22C12 22 4 14.4183 4 10C4 5.58172 7.58172 2 12 2C16.4183 2 20 5.58172 20 10ZM19 10C19 10.8415 18.6046 11.9589 17.8786 13.2484C17.1677 14.511 16.2068 15.8234 15.2256 17.0241C14.2476 18.2211 13.2668 19.2862 12.5292 20.0531C12.3339 20.2563 12.1559 20.4381 12 20.5956C11.8441 20.4381 11.6661 20.2563 11.4708 20.0531C10.7332 19.2862 9.75242 18.2211 8.77437 17.0241C7.79324 15.8234 6.83227 14.511 6.12138 13.2484C5.3954 11.9589 5 10.8415 5 10C5 6.13401 8.13401 3 12 3C15.866 3 19 6.13401 19 10Z" fill="#9DA1AE"/>
</svg>
