<svg width="27" height="14" viewBox="0 0 27 14" fill="none" xmlns="http://www.w3.org/2000/svg">
<path fill-rule="evenodd" clip-rule="evenodd" d="M17.0889 6.875C17.0889 8.94607 15.41 10.625 13.3389 10.625C11.2679 10.625 9.58893 8.94607 9.58893 6.875C9.58893 4.80393 11.2679 3.125 13.3389 3.125C15.41 3.125 17.0889 4.80393 17.0889 6.875ZM15.8389 6.875C15.8389 8.25571 14.7196 9.375 13.3389 9.375C11.9582 9.375 10.8389 8.25571 10.8389 6.875C10.8389 5.49429 11.9582 4.375 13.3389 4.375C14.7196 4.375 15.8389 5.49429 15.8389 6.875Z" fill="#2F3342"/>
<path fill-rule="evenodd" clip-rule="evenodd" d="M26.3042 6.45772C26.3044 6.45791 26.3045 6.45807 25.8389 6.875C26.3045 7.29193 26.3044 7.29209 26.3042 7.29228L26.3025 7.29418L26.2984 7.29871L26.2842 7.3144C26.2719 7.32777 26.2544 7.34689 26.2315 7.37137C26.1859 7.42035 26.1192 7.49082 26.0326 7.57971C25.8594 7.75746 25.6062 8.00913 25.2813 8.31007C24.6322 8.91138 23.6937 9.71248 22.533 10.5142C20.2234 12.1096 16.9726 13.75 13.3389 13.75C9.70526 13.75 6.45445 12.1096 4.14489 10.5142C2.98416 9.71248 2.04565 8.91138 1.39652 8.31007C1.07165 8.00913 0.818432 7.75746 0.645248 7.57971C0.558635 7.49082 0.491978 7.42035 0.446323 7.37137C0.423493 7.34689 0.405909 7.32777 0.393701 7.3144L0.379436 7.29871L0.375356 7.29418L0.374085 7.29277C0.373917 7.29258 0.373328 7.29193 0.838943 6.875C0.373328 6.45807 0.373474 6.45791 0.373642 6.45772L0.375356 6.45582L0.379436 6.45129L0.393701 6.4356C0.405909 6.42223 0.423493 6.40311 0.446323 6.37863C0.491978 6.32965 0.558635 6.25918 0.645248 6.17029C0.818432 5.99254 1.07165 5.74087 1.39652 5.43993C2.04565 4.83862 2.98416 4.03752 4.14489 3.23575C6.45445 1.64044 9.70526 0 13.3389 0C16.9726 0 20.2234 1.64044 22.533 3.23575C23.6937 4.03752 24.6322 4.83862 25.2813 5.43993C25.6062 5.74087 25.8594 5.99254 26.0326 6.17029C26.1192 6.25918 26.1859 6.32965 26.2315 6.37863C26.2544 6.40311 26.2719 6.42223 26.2842 6.4356L26.2984 6.45129L26.3025 6.45582L26.3042 6.45772ZM2.24598 7.39305C2.03113 7.19403 1.85028 7.0186 1.70629 6.875C1.85028 6.7314 2.03113 6.55597 2.24598 6.35695C2.86192 5.78638 3.75399 5.02498 4.85532 4.26425C7.06987 2.73456 10.069 1.25 13.3389 1.25C16.6088 1.25 19.608 2.73456 21.8225 4.26425C22.9239 5.02498 23.8159 5.78638 24.4319 6.35695C24.6467 6.55597 24.8276 6.7314 24.9716 6.875C24.8276 7.0186 24.6467 7.19403 24.4319 7.39305C23.8159 7.96362 22.9239 8.72502 21.8225 9.48575C19.608 11.0154 16.6088 12.5 13.3389 12.5C10.069 12.5 7.06987 11.0154 4.85532 9.48575C3.75399 8.72502 2.86192 7.96362 2.24598 7.39305Z" fill="#2F3342"/>
<path d="M0.838943 6.875L0.374085 7.29277L0 6.875L0.373642 6.45772L0.838943 6.875Z" fill="#2F3342"/>
<path d="M25.8389 6.875L26.3042 6.45772L26.6779 6.875L26.3042 7.29228L25.8389 6.875Z" fill="#2F3342"/>
</svg>
