<svg width="142" height="124" viewBox="0 0 142 124" fill="none" xmlns="http://www.w3.org/2000/svg">
<path fill-rule="evenodd" clip-rule="evenodd" d="M24.9122 66.5557C24.9122 34.8295 50.6952 9.11145 82.5016 9.11145V15.0234C53.9685 15.0234 30.8391 38.0945 30.8391 66.5557C30.8391 95.0168 53.9685 118.088 82.5016 118.088C111.035 118.088 134.164 95.0168 134.164 66.5557C134.164 59.2685 132.65 52.3435 129.92 46.0669L135.357 43.714C138.404 50.7195 140.091 58.4442 140.091 66.5557C140.091 98.2819 114.308 124 82.5016 124C50.6952 124 24.9122 98.2819 24.9122 66.5557Z" fill="#FF3030"/>
<path d="M113.364 21.8064C104.486 15.7983 93.7507 12.2853 82.1833 12.2853L113.364 21.8064Z" fill="white"/>
<path fill-rule="evenodd" clip-rule="evenodd" d="M82.1833 9.11145C94.2179 9.11145 105.395 12.8877 114.637 19.3458L111.293 24.3453C103.005 18.5537 92.9873 15.1676 82.1833 15.1676V9.11145Z" fill="#FF3030"/>
<path fill-rule="evenodd" clip-rule="evenodd" d="M142 15.6449L76.0193 87.8195L54.1842 68.1024L58.131 63.7096L75.622 79.504L137.652 11.6504L142 15.6449Z" fill="#FF3030"/>
<path fill-rule="evenodd" clip-rule="evenodd" d="M82.1737 27.1095C60.4879 27.1095 42.9089 44.7835 42.9089 66.5865C42.9089 72.1702 44.0593 77.4767 46.1336 82.282L40.7158 84.6459C38.3251 79.1075 37.0029 72.9974 37.0029 66.5865C37.0029 41.5041 57.2261 21.1716 82.1737 21.1716C91.6146 21.1716 100.386 24.0864 107.637 29.0704L104.304 33.9723C98.0035 29.6417 90.3878 27.1095 82.1737 27.1095Z" fill="#FF3030"/>
<path fill-rule="evenodd" clip-rule="evenodd" d="M121.458 66.5249C121.458 60.9412 120.308 55.6347 118.233 50.8294L123.651 48.4655C126.042 54.0039 127.364 60.114 127.364 66.5249C127.364 91.6073 107.141 111.94 82.1931 111.94C72.7523 111.94 63.9809 109.025 56.7295 104.041L60.0625 99.139C66.3633 103.47 73.9791 106.002 82.1931 106.002C103.879 106.002 121.458 88.3279 121.458 66.5249Z" fill="#FF3030"/>
<path fill-rule="evenodd" clip-rule="evenodd" d="M112.733 91.4978C118.191 84.7696 121.458 76.2052 121.458 66.873H127.364C127.364 77.6024 123.602 87.4654 117.324 95.2049C109.046 105.408 96.3849 111.94 82.1931 111.94C72.7523 111.94 63.9809 109.047 56.7295 104.102L60.0625 99.2372C66.3633 103.535 73.9791 106.047 82.1931 106.047C94.527 106.047 105.529 100.378 112.733 91.4978Z" fill="#FF3030"/>
<path fill-rule="evenodd" clip-rule="evenodd" d="M59.275 34.8414C49.3742 41.9894 42.9458 53.5821 42.9458 66.669C42.9458 72.2271 44.1034 77.5094 46.1906 82.2927L40.739 84.6459C38.3334 79.1327 37.0029 73.0506 37.0029 66.669C37.0029 51.6089 44.4094 38.27 55.784 30.058L59.275 34.8414Z" fill="#FF3030"/>
<path d="M18.0614 4.14148L21.2542 18.9726L36.1228 22.1574L21.2542 25.3422L18.0614 40.1733L14.8686 25.3422L0 22.1574L14.8686 18.9726L18.0614 4.14148Z" fill="#FF3030"/>
<path d="M38.4064 0L39.7643 6.30748L46.0877 7.66193L39.7643 9.01638L38.4064 15.3239L37.0485 9.01638L30.7251 7.66193L37.0485 6.30748L38.4064 0Z" fill="#FF3030"/>
</svg>
