<svg width="526" height="305" viewBox="0 0 526 305" fill="none" xmlns="http://www.w3.org/2000/svg">
<path d="M22.6694 167.707C11.4585 192.453 -5.13899 239.867 1.53283 298.819C10.0913 374.451 52.4465 434.088 93.6531 467.611C230.398 578.817 480.728 506.985 513.868 402.232C519.884 383.229 518.188 364.909 516.11 342.35C509.493 270.628 474.63 249.3 451.197 173.148C429.869 103.833 450.896 96.0398 430.935 65.2236C387.678 -1.63126 262.773 -5.02185 176.805 27.0247C143.801 39.3293 63.6846 77.0907 22.6694 167.68V167.707Z" fill="#FAFAFC"/>
<path d="M531.03 89.9376L437.365 143.587L285.008 55.2706L379.171 0.928406L531.03 89.9376Z" fill="#E52C3D"/>
<path d="M437.365 144.529C437.199 144.529 437.033 144.474 436.894 144.391L284.537 56.0741C284.232 55.9079 284.065 55.603 284.065 55.2428C284.065 54.9102 284.259 54.5777 284.537 54.4114L378.7 0.124702C379.005 -0.0415672 379.365 -0.0415672 379.642 0.124702L531.501 89.1339C531.806 89.3001 531.972 89.605 531.972 89.9652C531.972 90.2978 531.778 90.6026 531.501 90.7966L437.809 144.418C437.67 144.501 437.504 144.557 437.337 144.557L437.365 144.529ZM286.892 55.2705L437.365 142.478L529.146 89.9375L379.171 2.03679L286.892 55.2705Z" fill="black"/>
<path d="M437.365 505.277V143.227L531.085 89.8267V450.658L437.365 505.277Z" fill="#C4C6C9"/>
<path d="M437.365 506.219C437.199 506.219 437.032 506.164 436.894 506.08C436.589 505.914 436.423 505.609 436.423 505.249V143.227C436.423 142.894 436.617 142.562 436.894 142.395L530.586 88.9953C530.891 88.829 531.251 88.829 531.529 88.9953C531.833 89.1616 532 89.4664 532 89.8266V450.658C532 450.99 531.833 451.295 531.529 451.489L437.836 506.08C437.698 506.164 437.531 506.219 437.365 506.219ZM438.307 143.781V503.614L530.115 450.131V91.4616L438.307 143.781Z" fill="black"/>
<path d="M437.365 505.277V143.227L285.312 55.1043V416.434L437.365 505.277Z" fill="white"/>
<path d="M437.365 506.219C437.199 506.219 437.033 506.164 436.894 506.08L284.814 417.265C284.537 417.099 284.343 416.794 284.343 416.434V256.927C284.343 256.4 284.758 255.985 285.285 255.985C285.811 255.985 286.227 256.4 286.227 256.927V415.88L436.395 503.586V143.781L286.227 56.767V136.188C286.227 136.715 285.811 137.13 285.285 137.13C284.758 137.13 284.343 136.715 284.343 136.188V55.132C284.343 54.7995 284.537 54.4669 284.814 54.3007C285.118 54.1344 285.479 54.1344 285.756 54.3007L437.836 142.423C438.141 142.589 438.307 142.894 438.307 143.254V505.305C438.307 505.637 438.113 505.97 437.836 506.136C437.698 506.219 437.531 506.274 437.365 506.274V506.219Z" fill="black"/>
<path d="M505.175 259.338L456.874 286.8C455.461 287.603 454.574 289.1 454.574 290.735C454.574 294.199 458.315 296.388 461.336 294.67L509.637 267.208C511.05 266.404 511.909 264.908 511.909 263.273C511.909 259.809 508.168 257.62 505.148 259.338H505.175Z" fill="#A7A8AB"/>
<path d="M505.175 231.82L456.874 259.282C455.461 260.086 454.574 261.582 454.574 263.217C454.574 266.681 458.315 268.87 461.336 267.152L509.637 239.69C511.05 238.887 511.909 237.39 511.909 235.755C511.909 232.291 508.168 230.102 505.148 231.82H505.175Z" fill="#A7A8AB"/>
<path d="M505.175 204.33L456.874 231.792C455.461 232.596 454.574 234.093 454.574 235.728C454.574 239.191 458.315 241.381 461.336 239.663L509.637 212.2C511.05 211.397 511.909 209.9 511.909 208.265C511.909 204.802 508.168 202.612 505.148 204.33H505.175Z" fill="#A7A8AB"/>
<path d="M505.175 176.813L456.874 204.275C455.461 205.079 454.574 206.575 454.574 208.21C454.574 211.674 458.315 213.863 461.336 212.145L509.637 184.683C511.05 183.879 511.909 182.383 511.909 180.748C511.909 177.284 508.168 175.095 505.148 176.813H505.175Z" fill="#A7A8AB"/>
<path d="M505.175 149.295L456.874 176.758C455.461 177.561 454.574 179.058 454.574 180.693C454.574 184.156 458.315 186.346 461.336 184.628L509.637 157.166C511.05 156.362 511.909 154.865 511.909 153.23C511.909 149.767 508.168 147.577 505.148 149.295H505.175Z" fill="#A7A8AB"/>
<path d="M465.603 88.9123C465.437 88.9123 465.271 88.8846 465.132 88.7738L398.347 50.532C397.904 50.2826 397.738 49.7006 397.987 49.2295C398.236 48.7861 398.818 48.6199 399.29 48.8693L466.074 87.1111C466.518 87.3605 466.684 87.9424 466.434 88.4135C466.268 88.7183 465.936 88.8846 465.603 88.8846V88.9123Z" fill="black"/>
<path d="M389.895 45.5439C389.729 45.5439 389.563 45.5162 389.424 45.4053L374.46 36.8425C374.017 36.5931 373.85 36.0112 374.1 35.5401C374.349 35.0967 374.931 34.9304 375.402 35.1798L390.366 43.7427C390.81 43.9921 390.976 44.574 390.727 45.0451C390.56 45.3499 390.228 45.5162 389.895 45.5162V45.5439Z" fill="black"/>
<path d="M455.987 93.845C455.821 93.845 455.655 93.8173 455.516 93.7064L366.479 42.6065C366.036 42.3571 365.87 41.7751 366.119 41.304C366.368 40.8607 366.95 40.6944 367.421 40.9438L456.458 92.0437C456.902 92.2931 457.068 92.8751 456.819 93.3462C456.652 93.651 456.32 93.8173 455.987 93.8173V93.845Z" fill="black"/>
<path d="M447.757 99.6366C447.591 99.6366 447.424 99.6089 447.286 99.4981L419.048 83.0652C418.604 82.7881 418.438 82.2339 418.715 81.7628C418.965 81.3194 419.574 81.1531 420.018 81.4302L448.256 97.8631C448.699 98.1402 448.865 98.6945 448.588 99.1656C448.422 99.4704 448.089 99.6366 447.757 99.6366Z" fill="black"/>
<path d="M404.361 74.3638C404.194 74.3638 404.028 74.3084 403.89 74.2252L357.14 47.0126C356.697 46.7355 356.531 46.1812 356.808 45.7101C357.085 45.2668 357.667 45.1005 358.11 45.3776L404.86 72.5903C405.303 72.8674 405.469 73.4216 405.192 73.8927C405.026 74.1975 404.693 74.3638 404.361 74.3638Z" fill="black"/>
<path d="M439.776 105.123C439.61 105.123 439.443 105.096 439.305 104.985L348.356 52.4994C347.913 52.25 347.746 51.6681 347.996 51.197C348.245 50.7536 348.827 50.5873 349.298 50.8367L440.247 103.322C440.69 103.572 440.857 104.154 440.607 104.625C440.441 104.93 440.109 105.096 439.776 105.096V105.123Z" fill="black"/>
<path d="M213.09 202.926L124.169 151.41C118.016 147.828 110.305 152.285 110.305 159.395V250.011C110.305 256.628 113.805 262.753 119.52 266.089L235.675 333.928C241.828 337.538 249.566 333.081 249.566 325.944V234.781C249.566 228.136 246.039 222.011 240.296 218.675L213.09 202.898V202.926Z" fill="white"/>
<path d="M240.324 336.143C238.546 336.143 236.797 335.678 235.183 334.749L132.727 274.894C132.29 274.62 132.126 274.046 132.399 273.609C132.672 273.171 133.219 273.007 133.684 273.28L236.14 333.135C238.738 334.667 241.855 334.667 244.453 333.163C247.05 331.659 248.609 328.979 248.609 325.971V234.808C248.609 228.519 245.246 222.668 239.804 219.523L123.676 152.231C121.079 150.727 117.962 150.727 115.364 152.231C112.766 153.735 111.208 156.414 111.208 159.422V195.133C111.208 195.652 110.798 196.062 110.278 196.062C109.759 196.062 109.348 195.652 109.348 195.133V159.422C109.348 155.731 111.262 152.449 114.434 150.617C117.633 148.785 121.434 148.785 124.606 150.617L240.734 217.91C246.75 221.382 250.468 227.863 250.468 234.808V325.971C250.468 329.663 248.554 332.971 245.355 334.803C243.769 335.706 242.019 336.17 240.296 336.17L240.324 336.143Z" fill="black"/>
<path d="M230.261 261.741V237.652C230.261 236.449 229.633 235.355 228.593 234.753L134.614 180.312C132.399 179.027 129.583 180.641 129.583 183.211V206.863C129.583 208.039 130.212 209.16 131.251 209.761L225.23 264.64C227.445 265.952 230.261 264.339 230.261 261.741Z" fill="#C4C6C9"/>
<path d="M212.543 239.456V239.265C212.543 237.679 211.695 236.203 210.301 235.41L153.809 203.062C150.829 201.367 147.137 203.5 147.137 206.918C147.137 208.504 147.985 209.98 149.38 210.773L205.871 243.339C208.852 245.062 212.543 242.902 212.543 239.484V239.456Z" fill="white"/>
<path d="M230.261 300.761V281.839C230.261 279.843 229.195 278.011 227.472 276.999L137.977 225.156C134.258 222.996 129.61 225.675 129.61 229.995V248.48C129.61 250.476 130.676 252.308 132.372 253.292L221.867 305.573C225.586 307.733 230.261 305.053 230.261 300.761Z" fill="#C4C6C9"/>
<path d="M143.528 248.398C144.646 248.398 145.551 246.916 145.551 245.089C145.551 243.262 144.646 241.781 143.528 241.781C142.41 241.781 141.505 243.262 141.505 245.089C141.505 246.916 142.41 248.398 143.528 248.398Z" fill="white"/>
<path d="M155.559 253.484C155.559 251.652 156.462 250.175 157.583 250.175C158.704 250.175 159.606 251.652 159.606 253.484C159.606 255.316 158.704 256.792 157.583 256.792C156.462 256.792 155.559 255.316 155.559 253.484Z" fill="#E52C3D"/>
<path d="M170.161 261.796C170.161 259.964 171.063 258.487 172.184 258.487C173.305 258.487 174.208 259.964 174.208 261.796C174.208 263.628 173.305 265.104 172.184 265.104C171.063 265.104 170.161 263.628 170.161 261.796Z" fill="white"/>
<path d="M183.887 270.245C183.887 268.413 184.789 266.937 185.91 266.937C187.032 266.937 187.934 268.413 187.934 270.245C187.934 272.077 187.032 273.554 185.91 273.554C184.789 273.554 183.887 272.077 183.887 270.245Z" fill="#E52C3D"/>
<path d="M198.516 278.175C198.516 276.343 199.418 274.866 200.539 274.866C201.66 274.866 202.563 276.343 202.563 278.175C202.563 280.007 201.66 281.483 200.539 281.483C199.418 281.483 198.516 280.007 198.516 278.175Z" fill="black"/>
<path d="M215.77 290.507C216.887 290.507 217.793 289.025 217.793 287.198C217.793 285.371 216.887 283.889 215.77 283.889C214.652 283.889 213.746 285.371 213.746 287.198C213.746 289.025 214.652 290.507 215.77 290.507Z" fill="white"/>
<path d="M249.566 184.277V93.114C249.566 86.4695 246.039 80.3446 240.296 77.0087L124.169 9.71627C118.016 6.13427 110.305 10.5913 110.305 17.7006V108.317C110.305 114.934 113.805 121.059 119.52 124.395L235.675 192.234C241.828 195.844 249.566 191.387 249.566 184.25V184.277Z" fill="white"/>
<path d="M240.324 194.449C238.546 194.449 236.797 193.984 235.183 193.055L119.028 125.215C113.067 121.715 109.348 115.262 109.348 108.344V17.7279C109.348 14.0366 111.262 10.7553 114.434 8.92333C117.633 7.09131 121.434 7.09131 124.606 8.92333L240.734 76.2157C246.75 79.6883 250.468 86.1688 250.468 93.114V184.277C250.468 187.969 248.554 191.277 245.355 193.109C243.769 194.012 242.019 194.476 240.296 194.476L240.324 194.449ZM119.52 9.41551C118.098 9.41551 116.676 9.79832 115.364 10.5366C112.766 12.0405 111.208 14.7202 111.208 17.7279V108.344C111.208 114.606 114.571 120.458 119.958 123.602L236.113 191.441C238.711 192.973 241.828 192.973 244.425 191.469C247.023 189.965 248.582 187.285 248.582 184.277V93.114C248.582 86.825 245.218 80.9735 239.777 77.829L123.676 10.5366C122.364 9.77098 120.942 9.41551 119.52 9.41551Z" fill="black"/>
<path d="M220.637 113.02V112.774C220.637 111.243 219.816 109.821 218.476 109.055L197.094 96.5865C194.223 94.9186 190.613 96.9967 190.613 100.305V100.387C190.613 101.919 191.434 103.34 192.746 104.106L214.129 116.766C217 118.434 220.609 116.383 220.609 113.047L220.637 113.02Z" fill="#A7A8AB"/>
<path d="M236.824 142.059V141.895C236.824 140.363 236.004 138.942 234.664 138.176L197.094 116.411C194.223 114.743 190.613 116.821 190.613 120.129C190.613 121.661 191.434 123.082 192.746 123.848L230.316 145.805C233.187 147.473 236.797 145.422 236.797 142.086L236.824 142.059Z" fill="#A7A8AB"/>
<path d="M179.239 67.5478L151.977 83.4071L124.716 67.5478L152.278 51.4972L179.239 67.5478Z" fill="#E52C3D"/>
<path d="M151.977 83.8993C151.977 83.8993 151.813 83.8993 151.731 83.8446L124.497 67.958C124.333 67.876 124.251 67.7119 124.251 67.5205C124.251 67.3291 124.333 67.1924 124.497 67.083L152.059 51.0323C152.223 50.9503 152.415 50.9503 152.551 51.0323L179.512 67.1103C179.676 67.1924 179.758 67.3564 179.758 67.5478C179.758 67.7119 179.676 67.876 179.512 67.9853L152.251 83.8446C152.251 83.8446 152.086 83.8993 152.004 83.8993H151.977ZM125.727 67.5205L151.977 82.8329L178.282 67.5478L152.305 52.0714L125.727 67.5478V67.5205Z" fill="black"/>
<path d="M151.977 115.536V83.2702L179.348 67.493V99.3756L151.977 115.536Z" fill="#C4C6C9"/>
<path d="M151.977 116.028C151.977 116.028 151.813 116.028 151.731 115.973C151.567 115.891 151.485 115.727 151.485 115.536V83.2977C151.485 83.1337 151.567 82.9696 151.731 82.8602L179.102 67.083C179.266 67.001 179.457 67.001 179.594 67.083C179.758 67.165 179.84 67.3291 179.84 67.5205V99.403C179.84 99.5671 179.758 99.7312 179.594 99.8405L152.223 116.001C152.223 116.001 152.059 116.083 151.977 116.083V116.028ZM152.469 83.5711V114.661L178.856 99.1023V68.3682L152.469 83.5711Z" fill="black"/>
<path d="M151.977 115.536V83.2704L124.853 67.4932V99.4577L151.977 115.536Z" fill="white"/>
<path d="M151.977 116.028C151.977 116.028 151.813 116.028 151.731 115.946L124.579 99.8679C124.415 99.7859 124.333 99.6218 124.333 99.4304V67.4658C124.333 67.3018 124.415 67.1377 124.579 67.0283C124.743 66.9463 124.934 66.9463 125.071 67.0283L152.223 82.8329C152.387 82.9149 152.469 83.079 152.469 83.2704V115.508C152.469 115.7 152.387 115.864 152.223 115.946C152.141 116.001 152.059 116.001 151.977 116.001V116.028ZM125.345 99.1843L151.485 114.661V83.5711L125.345 68.3408V99.157V99.1843Z" fill="black"/>
<path d="M103.743 300.87C103.743 300.87 121.653 415.631 118.098 491.864L99.5866 492.357C99.5866 492.357 78.4774 376.01 68.579 356.787C68.579 356.787 41.3722 462.853 40.3605 490.771C40.3605 490.771 28.3841 491.974 23.6263 490.251C21.056 463.318 20.5912 432.365 20.4545 414.865C20.099 364.799 24.8568 342.049 27.4817 331.249C29.888 321.35 32.4583 313.284 34.345 307.843L40.634 289.85L103.715 300.87H103.743Z" fill="#2F3342"/>
<path d="M72.7625 200.656C72.7625 200.656 87.1179 204.183 95.5123 217.882C101.965 228.41 106.969 236.968 115.309 238.445C127.094 240.55 136.145 222.312 136.145 222.312L147.328 225.538C147.328 225.538 142.844 267.73 118.262 273.882C100.215 278.393 73.6922 254.495 73.6922 254.495L72.7625 200.656Z" fill="#E52C3D"/>
<path d="M31.3097 298.135L30.4347 312.053C30.8722 315.198 33.4152 317.631 36.5597 317.905C40.1143 318.233 51.1884 319.272 58.6806 317.878C74.1023 315.006 89.3326 305.299 99.149 304.178C108.965 303.057 107.68 294.772 105.411 285.722C103.661 278.667 89.1959 224.171 82.7429 209.378C80.7468 204.785 76.6726 201.449 71.8055 200.382C65.4891 199.015 55.9462 197.566 45.3369 198.031C26.7433 198.824 10.6927 209.925 4.18495 227.343L22.7785 260.565C29.1769 271.995 32.1574 285.065 31.3097 298.135Z" fill="#E52C3D"/>
<path d="M4.18502 227.316C-5.13912 259.171 6.50921 281.538 40.962 270.601C98.3834 252.335 96.1139 222.531 96.1139 222.531L93.2975 214.574C92.0397 211.019 87.9382 209.406 84.6023 211.128L57.3955 228.191C43.1222 234.753 17.1732 241.015 12.4154 229.23L4.21236 227.288L4.18502 227.316Z" fill="#E52C3D"/>
<path d="M27.2904 275.44C26.8256 275.44 26.4428 275.112 26.3607 274.647C26.2787 274.128 26.6342 273.663 27.1264 273.581C50.0676 269.972 66.6651 258.733 76.5908 249.929C88.1844 239.648 94.4187 229.312 94.9929 225.566C95.075 225.046 95.5398 224.691 96.0593 224.773C96.5789 224.855 96.9343 225.32 96.8523 225.839C95.6218 233.96 71.2041 268.522 27.4545 275.413C27.3998 275.413 27.3451 275.413 27.3178 275.413L27.2904 275.44Z" fill="white"/>
<path d="M30.38 239.429C29.0949 239.429 27.5637 238.991 26.5246 237.706C25.5402 236.503 24.7199 234.152 26.4973 229.913C26.6887 229.449 27.2355 229.202 27.7277 229.421C28.1926 229.613 28.4386 230.159 28.2199 230.652C27.1262 233.304 27.0441 235.382 27.9738 236.558C28.7394 237.488 30.0519 237.706 31.0363 237.515C45.6377 234.699 63.2196 225.757 83.2624 210.937C83.6725 210.636 84.2741 210.718 84.5749 211.128C84.8757 211.539 84.7936 212.14 84.3835 212.441C64.0946 227.452 46.2666 236.503 31.3917 239.347C31.091 239.402 30.7355 239.429 30.38 239.429Z" fill="white"/>
<path d="M103.168 274.976C102.758 274.976 102.376 274.702 102.266 274.292C99.5592 264.995 93.4069 248.234 93.3522 248.069C93.1608 247.577 93.4342 247.058 93.8991 246.866C94.3912 246.675 94.9108 246.948 95.1022 247.413C95.1568 247.577 101.336 264.394 104.043 273.745C104.18 274.237 103.907 274.757 103.415 274.893C103.333 274.893 103.251 274.921 103.141 274.921L103.168 274.976Z" fill="white"/>
<path d="M129.883 222.75L140.875 222.832L160.809 195.515L150.2 195.051L129.883 222.75Z" fill="#A7A8AB"/>
<path d="M140.41 223.296L129.418 223.214C129.063 223.214 128.735 223.023 128.598 222.695C128.434 222.394 128.461 222.011 128.68 221.71L148.996 194.039C149.188 193.793 149.489 193.656 149.789 193.656L160.399 194.121C160.754 194.121 161.055 194.34 161.192 194.64C161.328 194.941 161.301 195.324 161.11 195.597L141.176 222.914C141.012 223.16 140.711 223.296 140.41 223.296ZM131.25 221.355L139.918 221.437L158.539 195.926L150.172 195.543L131.25 221.355Z" fill="black"/>
<path d="M138.169 219.523C138.169 219.523 140.739 213.234 146.727 213.617L152.469 205.742C152.469 205.742 156.899 226.195 144.731 226.222L140.958 225.593C138.141 225.128 136.692 221.957 138.196 219.523H138.169Z" fill="white"/>
<path d="M144.731 227.152C144.731 227.152 144.621 227.152 144.567 227.152L140.793 226.523C139.153 226.249 137.785 225.183 137.102 223.679C136.418 222.203 136.528 220.48 137.348 219.085C137.676 218.347 140.328 212.66 146.207 212.66C146.207 212.66 146.262 212.66 146.289 212.66L151.731 205.168C151.949 204.867 152.305 204.73 152.688 204.812C153.043 204.894 153.344 205.168 153.399 205.523C153.508 206.043 156.106 218.292 151.43 224.117C149.817 226.113 147.574 227.124 144.758 227.152H144.731ZM146.207 214.519C141.258 214.519 139.043 219.796 139.016 219.851C139.016 219.906 138.961 219.933 138.961 219.988C138.414 220.89 138.36 221.929 138.797 222.886C139.235 223.843 140.082 224.472 141.094 224.636L144.785 225.265C147 225.265 148.696 224.472 149.926 222.941C152.988 219.14 152.414 211.73 151.895 208.066L147.465 214.164C147.274 214.41 146.973 214.574 146.645 214.546C146.481 214.546 146.344 214.546 146.207 214.546V214.519Z" fill="black"/>
<path d="M133.465 210.199C133.711 209.269 133.246 208.312 132.344 207.984C129.883 207 117.25 201.941 114.871 201.011C112.493 200.082 110.934 202.242 108.391 203.5C106.176 204.593 98.3287 208.695 91.4928 210.664C89.4147 211.238 87.9655 213.097 87.8288 215.23C87.7467 216.46 87.8288 217.773 88.2663 218.812C89.4147 221.546 89.8522 224.226 101.09 216.789C101.09 216.789 103.688 217.171 107.024 216.269C107.024 216.269 108.446 228.71 120.942 213.753C122.063 212.414 122.336 210.582 121.543 209.05C121.489 208.941 121.407 208.804 121.352 208.668L131.086 211.566C132.098 211.867 133.164 211.265 133.438 210.226L133.465 210.199Z" fill="white"/>
<path d="M91.0552 222.531C90.6724 222.531 90.3169 222.476 89.9888 222.394C88.5396 221.956 87.9927 220.644 87.5279 219.523L87.3911 219.167C86.9536 218.128 86.7896 216.789 86.899 215.175C87.063 212.632 88.813 210.445 91.2466 209.761C97.2621 208.039 104.125 204.593 107.078 203.144C107.461 202.953 107.762 202.789 108.008 202.679C108.719 202.324 109.348 201.886 109.977 201.476C111.535 200.437 113.121 199.343 115.227 200.164C117.852 201.203 132.535 207.054 132.699 207.136C134.012 207.656 134.723 209.105 134.367 210.472C134.176 211.21 133.684 211.839 133 212.222C132.317 212.605 131.551 212.687 130.813 212.468L122.856 210.089C123.102 211.566 122.664 213.124 121.653 214.355C116.676 220.316 112.793 222.777 109.813 221.902C107.571 221.218 106.641 218.839 106.286 217.417C103.934 217.91 102.075 217.828 101.309 217.773C96.2504 221.081 93.1333 222.585 91.0278 222.585L91.0552 222.531ZM113.75 201.722C112.957 201.722 112.192 202.214 111.043 203.007C110.387 203.445 109.676 203.937 108.856 204.347C108.61 204.457 108.309 204.621 107.953 204.812C104.973 206.316 97.9731 209.816 91.7934 211.566C90.1255 212.031 88.9224 213.535 88.813 215.285C88.731 216.597 88.8677 217.691 89.1685 218.429L89.3325 218.785C89.7427 219.824 90.0161 220.398 90.5903 220.589C91.9849 221.027 95.3481 219.468 100.598 215.968C100.789 215.831 101.008 215.777 101.254 215.832C101.254 215.832 103.715 216.16 106.832 215.339C107.106 215.257 107.379 215.339 107.598 215.476C107.817 215.64 107.981 215.886 108.008 216.132C108.118 217.062 108.774 219.578 110.414 220.07C111.617 220.425 114.516 220.015 120.285 213.124C121.188 212.058 121.379 210.609 120.778 209.433C120.723 209.324 120.668 209.214 120.586 209.078C120.395 208.75 120.422 208.339 120.668 208.039C120.914 207.738 121.297 207.628 121.653 207.738L131.387 210.636C131.633 210.718 131.879 210.691 132.125 210.554C132.344 210.417 132.508 210.226 132.59 209.953C132.699 209.488 132.481 209.023 132.043 208.832C128.215 207.3 116.785 202.734 114.598 201.886C114.324 201.777 114.051 201.722 113.805 201.722H113.75Z" fill="black"/>
<path d="M106.887 217.199C106.504 217.199 106.149 216.98 106.012 216.597C105.821 216.105 106.067 215.585 106.559 215.394C110.496 213.89 112.684 214.246 112.793 214.246C113.313 214.328 113.641 214.82 113.559 215.312C113.477 215.832 112.985 216.16 112.492 216.078C112.438 216.078 110.606 215.832 107.243 217.117C107.133 217.171 107.024 217.171 106.914 217.171L106.887 217.199Z" fill="black"/>
<path d="M86.1607 177.195L84.1099 172.027C83.5084 170.141 83.6177 166.094 82.6334 166.039C82.6334 166.039 62.0984 156.824 58.0516 166.121C57.4773 167.461 57.4227 168.992 57.8875 170.387L58.8172 173.312C59.6648 176.019 57.4773 188.078 52.4188 195.379C51.161 196.883 49.6298 198.14 47.8798 199.015L46.9501 199.48C45.4189 200.273 45.7196 202.543 47.3876 202.898C54.2782 204.375 66.528 206.781 72.7624 206.781C80.4186 206.781 72.735 201.203 70.3014 199.562C71.1218 195.898 72.7897 187.613 72.7897 187.613C73.0358 186.848 73.7194 186.301 74.5397 186.273L79.8443 187.012C80.61 187.012 81.2935 186.465 81.4849 185.699L83.2349 178.863L85.9693 177.687C86.188 177.605 86.2974 177.359 86.188 177.141L86.1607 177.195Z" fill="white"/>
<path d="M72.7352 207.738C66.3915 207.738 54.0049 205.304 47.169 203.855C46.0206 203.609 45.1729 202.679 45.0089 201.504C44.8448 200.328 45.4464 199.207 46.4854 198.687L47.4151 198.222C49.0284 197.402 50.4502 196.254 51.626 194.832C56.5752 187.668 58.6259 175.965 57.8603 173.613L56.9306 170.688C56.4111 169.02 56.4931 167.27 57.1494 165.766C57.9424 163.934 59.3642 162.621 61.3603 161.856C68.579 159.067 81.3484 164.508 82.8523 165.164C84.0554 165.383 84.2742 167.078 84.5476 169.184C84.657 170.113 84.7937 171.098 84.9851 171.727L87.0085 176.867C87.2819 177.551 86.9538 178.344 86.2702 178.617L83.946 179.601L82.3054 186C82.0046 187.148 80.9656 187.969 79.7898 187.996C79.7351 187.996 79.6804 187.996 79.6258 187.996L74.4305 187.258C74.075 187.285 73.7469 187.531 73.6375 187.887C73.5008 188.57 72.1336 195.488 71.3133 199.179C77.6297 203.554 77.0828 205.386 76.8914 205.988C76.4266 207.547 74.2938 207.738 72.7352 207.738ZM66.2821 162.895C64.7235 162.895 63.3017 163.086 62.0439 163.578C60.5126 164.18 59.5009 165.109 58.8994 166.504C58.4072 167.598 58.3798 168.883 58.7627 170.113L59.6923 173.039C60.6767 176.184 58.3525 188.488 53.1846 195.926C53.1846 195.926 53.1572 195.98 53.1299 195.98C51.7627 197.621 50.1495 198.906 48.2901 199.863L47.3604 200.328C46.8409 200.601 46.8682 201.093 46.8682 201.23C46.8682 201.367 47.0049 201.859 47.5518 201.996C54.3057 203.445 66.5556 205.851 72.7078 205.851C74.7586 205.851 75.0867 205.414 75.0867 205.414C75.1688 205.004 73.993 203.226 69.7274 200.355C69.3993 200.136 69.2626 199.754 69.3446 199.371C70.1649 195.761 71.8055 187.531 71.8055 187.449C71.8055 187.422 71.8055 187.394 71.8055 187.367C72.161 186.191 73.2274 185.398 74.4305 185.371C74.4852 185.371 74.5399 185.371 74.5946 185.371L79.7898 186.109C80.1179 186.082 80.3914 185.836 80.4734 185.508L82.2234 178.672C82.3054 178.398 82.4968 178.152 82.7703 178.043L85.0671 177.059L83.2078 172.355C83.2078 172.355 83.2078 172.328 83.2078 172.301C82.9617 171.508 82.8249 170.414 82.6882 169.402C82.5789 168.582 82.4421 167.352 82.2507 166.914C82.1414 166.859 73.2274 162.922 66.2821 162.922V162.895Z" fill="black"/>
<path d="M87.9383 151.684C83.536 150.071 82.579 153.844 73.2275 146.571C67.6221 142.196 65.5713 149.524 63.3018 148.895C56.63 147.063 53.7042 147.145 51.6535 152.668C50.2863 156.332 53.1574 163.578 54.8253 170.879C55.7003 174.652 60.4854 177.66 64.8604 172.574C66.2276 170.988 64.2315 168.555 65.8448 167.625C70.083 165.246 69.7275 170.688 72.7353 169.922C75.6337 169.184 76.9462 168.527 80.2548 167.051C84.2469 165.274 87.3368 168.938 91.1922 163.359C93.2156 160.461 93.9812 153.899 87.9383 151.684Z" fill="black"/>
<path d="M70.4385 41.8449C69.919 41.8449 69.5088 41.4347 69.5088 40.9152V37.8801C69.5088 37.3605 69.919 36.9504 70.4385 36.9504C70.958 36.9504 71.3682 37.3605 71.3682 37.8801V40.9152C71.3682 41.4347 70.958 41.8449 70.4385 41.8449Z" fill="black"/>
<path d="M70.4385 53.3017C69.919 53.3017 69.5088 52.8916 69.5088 52.372V49.3369C69.5088 48.8174 69.919 48.4072 70.4385 48.4072C70.958 48.4072 71.3682 48.8174 71.3682 49.3369V52.372C71.3682 52.8916 70.958 53.3017 70.4385 53.3017Z" fill="black"/>
<path d="M66.2276 46.0558H63.1925C62.673 46.0558 62.2628 45.6456 62.2628 45.1261C62.2628 44.6066 62.673 44.1964 63.1925 44.1964H66.2276C66.7471 44.1964 67.1573 44.6066 67.1573 45.1261C67.1573 45.6456 66.7471 46.0558 66.2276 46.0558Z" fill="black"/>
<path d="M77.712 46.0558H74.6769C74.1574 46.0558 73.7472 45.6456 73.7472 45.1261C73.7472 44.6066 74.1574 44.1964 74.6769 44.1964H77.712C78.2316 44.1964 78.6417 44.6066 78.6417 45.1261C78.6417 45.6456 78.2316 46.0558 77.712 46.0558Z" fill="black"/>
<path d="M23.426 115.55C20.4455 115.55 18.012 113.117 18.012 110.136C18.012 107.156 20.4455 104.722 23.426 104.722C26.4064 104.722 28.84 107.156 28.84 110.136C28.84 113.117 26.4064 115.55 23.426 115.55ZM23.426 106.609C21.4846 106.609 19.8987 108.195 19.8987 110.136C19.8987 112.078 21.4846 113.663 23.426 113.663C25.3674 113.663 26.9533 112.078 26.9533 110.136C26.9533 108.195 25.3674 106.609 23.426 106.609Z" fill="black"/>
</svg>
